<?xml version="1.0" encoding="UTF-8" standalone="no"?>
<!-- Created with Inkscape (http://www.inkscape.org/) -->

<svg
   width="174.87798mm"
   height="92.889076mm"
   viewBox="0 0 174.87798 92.889076"
   version="1.1"
   id="svg30689"
   sodipodi:docname="diagrama.svg"
   inkscape:version="1.1.2 (0a00cf5339, 2022-02-04)"
   xmlns:inkscape="http://www.inkscape.org/namespaces/inkscape"
   xmlns:sodipodi="http://sodipodi.sourceforge.net/DTD/sodipodi-0.dtd"
   xmlns:xlink="http://www.w3.org/1999/xlink"
   xmlns="http://www.w3.org/2000/svg"
   xmlns:svg="http://www.w3.org/2000/svg">
  <sodipodi:namedview
     id="namedview30691"
     pagecolor="#ffffff"
     bordercolor="#666666"
     borderopacity="1.0"
     inkscape:pageshadow="2"
     inkscape:pageopacity="0.0"
     inkscape:pagecheckerboard="0"
     inkscape:document-units="mm"
     showgrid="false"
     inkscape:zoom="7.4331526"
     inkscape:cx="363.103"
     inkscape:cy="111.72917"
     inkscape:window-width="3840"
     inkscape:window-height="2070"
     inkscape:window-x="0"
     inkscape:window-y="42"
     inkscape:window-maximized="1"
     inkscape:current-layer="layer1"
     fit-margin-top="0"
     fit-margin-left="0"
     fit-margin-right="0"
     fit-margin-bottom="0" />
  <defs
     id="defs30686">
    <rect
       x="38.659377"
       y="203.32986"
       width="181.90024"
       height="45.922121"
       id="rect1896" />
    <marker
       style="overflow:visible"
       id="Arrow1Lend"
       refX="0"
       refY="0"
       orient="auto"
       inkscape:stockid="Arrow1Lend"
       inkscape:isstock="true">
      <path
         transform="matrix(-0.8,0,0,-0.8,-10,0)"
         style="fill:context-stroke;fill-rule:evenodd;stroke:context-stroke;stroke-width:1pt"
         d="M 0,0 5,-5 -12.5,0 5,5 Z"
         id="path90932" />
    </marker>
    <rect
       x="101.28884"
       y="408.58298"
       width="180.45485"
       height="38.032887"
       id="rect37329" />
    <g
       id="g4832">
      <symbol
         overflow="visible"
         id="symbol6615">
        <path
           style="stroke:none"
           d=""
           id="path8605" />
      </symbol>
      <symbol
         overflow="visible"
         id="symbol6443">
        <path
           style="stroke:none"
           d="M 3.328125,-3.015625 C 3.390625,-3.265625 3.625,-4.1875 4.3125,-4.1875 c 0.046875,0 0.296875,0 0.5,0.125 C 4.53125,-4 4.34375,-3.765625 4.34375,-3.515625 c 0,0.15625 0.109375,0.34375 0.375,0.34375 0.21875,0 0.53125,-0.171875 0.53125,-0.578125 0,-0.515625 -0.578125,-0.65625 -0.921875,-0.65625 -0.578125,0 -0.921875,0.53125 -1.046875,0.75 -0.25,-0.65625 -0.78125,-0.75 -1.078125,-0.75 -1.03125,0 -1.609375,1.28125 -1.609375,1.53125 0,0.109375 0.109375,0.109375 0.125,0.109375 0.078125,0 0.109375,-0.03125 0.125,-0.109375 0.34375,-1.0625 1,-1.3125 1.34375,-1.3125 0.1875,0 0.53125,0.09375 0.53125,0.671875 0,0.3125 -0.171875,0.96875 -0.53125,2.375 -0.15625,0.609375 -0.515625,1.03125 -0.953125,1.03125 -0.0625,0 -0.28125,0 -0.5,-0.125 0.25,-0.0625 0.46875,-0.265625 0.46875,-0.546875 0,-0.265625 -0.21875,-0.34375 -0.359375,-0.34375 -0.3125,0 -0.546875,0.25 -0.546875,0.578125 0,0.453125 0.484375,0.65625 0.921875,0.65625 0.671875,0 1.03125,-0.703125 1.046875,-0.75 0.125,0.359375 0.484375,0.75 1.078125,0.75 1.03125,0 1.59375,-1.28125 1.59375,-1.53125 0,-0.109375 -0.078125,-0.109375 -0.109375,-0.109375 -0.09375,0 -0.109375,0.046875 -0.140625,0.109375 -0.328125,1.078125 -1,1.3125 -1.3125,1.3125 -0.390625,0 -0.546875,-0.3125 -0.546875,-0.65625 0,-0.21875 0.046875,-0.4375 0.15625,-0.875 z m 0,0"
           id="path3826" />
      </symbol>
      <symbol
         overflow="visible"
         id="symbol2539">
        <path
           style="stroke:none"
           d="m 2.046875,-3.984375 h 0.9375 c 0.203125,0 0.3125,0 0.3125,-0.203125 0,-0.109375 -0.109375,-0.109375 -0.28125,-0.109375 h -0.875 C 2.5,-5.71875 2.546875,-5.90625 2.546875,-5.96875 c 0,-0.171875 -0.125,-0.265625 -0.296875,-0.265625 -0.03125,0 -0.3125,0 -0.390625,0.359375 L 1.46875,-4.296875 h -0.9375 c -0.203125,0 -0.296875,0 -0.296875,0.1875 0,0.125 0.078125,0.125 0.28125,0.125 h 0.875 C 0.671875,-1.15625 0.625,-0.984375 0.625,-0.8125 0.625,-0.265625 1,0.109375 1.546875,0.109375 2.5625,0.109375 3.125,-1.34375 3.125,-1.421875 3.125,-1.53125 3.046875,-1.53125 3.015625,-1.53125 2.921875,-1.53125 2.90625,-1.5 2.859375,-1.390625 2.4375,-0.34375 1.90625,-0.109375 1.5625,-0.109375 c -0.203125,0 -0.3125,-0.125 -0.3125,-0.453125 0,-0.25 0.03125,-0.3125 0.0625,-0.484375 z m 0,0"
           id="path9187" />
      </symbol>
      <symbol
         overflow="visible"
         id="symbol2343">
        <path
           style="stroke:none"
           d=""
           id="path7503" />
      </symbol>
      <symbol
         overflow="visible"
         id="symbol1681">
        <path
           style="stroke:none"
           d="m 2.265625,-4.359375 c 0,-0.109375 -0.09375,-0.265625 -0.28125,-0.265625 -0.1875,0 -0.390625,0.1875 -0.390625,0.390625 0,0.109375 0.078125,0.265625 0.28125,0.265625 0.1875,0 0.390625,-0.203125 0.390625,-0.390625 z M 0.84375,-0.8125 c -0.03125,0.09375 -0.0625,0.171875 -0.0625,0.296875 0,0.328125 0.265625,0.578125 0.65625,0.578125 0.6875,0 1,-0.953125 1,-1.0625 0,-0.09375 -0.09375,-0.09375 -0.109375,-0.09375 -0.09375,0 -0.109375,0.046875 -0.140625,0.125 -0.15625,0.5625 -0.453125,0.84375 -0.734375,0.84375 -0.140625,0 -0.171875,-0.09375 -0.171875,-0.25 0,-0.15625 0.046875,-0.28125 0.109375,-0.4375 C 1.46875,-1 1.546875,-1.1875 1.609375,-1.375 1.671875,-1.546875 1.9375,-2.171875 1.953125,-2.265625 1.984375,-2.328125 2,-2.40625 2,-2.484375 2,-2.8125 1.71875,-3.078125 1.34375,-3.078125 0.640625,-3.078125 0.328125,-2.125 0.328125,-2 c 0,0.078125 0.09375,0.078125 0.125,0.078125 0.09375,0 0.09375,-0.03125 0.125,-0.109375 C 0.75,-2.625 1.0625,-2.875 1.3125,-2.875 c 0.109375,0 0.171875,0.046875 0.171875,0.234375 0,0.171875 -0.03125,0.265625 -0.203125,0.703125 z m 0,0"
           id="path7348" />
      </symbol>
      <symbol
         overflow="visible"
         id="symbol9187">
        <path
           style="stroke:none"
           d=""
           id="path1763" />
      </symbol>
      <symbol
         overflow="visible"
         id="symbol5524">
        <path
           style="stroke:none"
           d="m 3.296875,2.390625 c 0,-0.03125 0,-0.046875 -0.171875,-0.21875 C 1.890625,0.921875 1.5625,-0.96875 1.5625,-2.5 c 0,-1.734375 0.375,-3.46875 1.609375,-4.703125 0.125,-0.125 0.125,-0.140625 0.125,-0.171875 0,-0.078125 -0.03125,-0.109375 -0.09375,-0.109375 -0.109375,0 -1,0.6875 -1.59375,1.953125 -0.5,1.09375 -0.625,2.203125 -0.625,3.03125 0,0.78125 0.109375,1.984375 0.65625,3.125 C 2.25,1.84375 3.09375,2.5 3.203125,2.5 c 0.0625,0 0.09375,-0.03125 0.09375,-0.109375 z m 0,0"
           id="path762" />
      </symbol>
      <symbol
         overflow="visible"
         id="symbol5939">
        <path
           style="stroke:none"
           d="m 2.875,-2.5 c 0,-0.765625 -0.109375,-1.96875 -0.65625,-3.109375 -0.59375,-1.21875 -1.453125,-1.875 -1.546875,-1.875 -0.0625,0 -0.109375,0.046875 -0.109375,0.109375 0,0.03125 0,0.046875 0.1875,0.234375 0.984375,0.984375 1.546875,2.5625 1.546875,4.640625 0,1.71875 -0.359375,3.46875 -1.59375,4.71875 C 0.5625,2.34375 0.5625,2.359375 0.5625,2.390625 0.5625,2.453125 0.609375,2.5 0.671875,2.5 0.765625,2.5 1.671875,1.8125 2.25,0.546875 2.765625,-0.546875 2.875,-1.65625 2.875,-2.5 Z m 0,0"
           id="path4754" />
      </symbol>
    </g>
    <g
       id="g1057">
      <symbol
         overflow="visible"
         id="symbol639">
        <path
           style="stroke:none"
           d=""
           id="path8932" />
      </symbol>
      <symbol
         overflow="visible"
         id="symbol323">
        <path
           style="stroke:none"
           d="M 4.828125,-4.09375 4,-6.078125 c -0.03125,-0.078125 -0.046875,-0.125 -0.046875,-0.125 0,-0.0625 0.15625,-0.25 0.578125,-0.296875 0.109375,-0.015625 0.203125,-0.015625 0.203125,-0.1875 0,-0.125 -0.125,-0.125 -0.15625,-0.125 -0.40625,0 -0.828125,0.03125 -1.25,0.03125 -0.25,0 -0.859375,-0.03125 -1.109375,-0.03125 -0.0625,0 -0.1875,0 -0.1875,0.203125 C 2.03125,-6.5 2.140625,-6.5 2.265625,-6.5 c 0.59375,0 0.65625,0.09375 0.75,0.3125 l 1.171875,2.78125 -2.109375,2.265625 -0.125,0.109375 C 1.46875,-0.5 1,-0.34375 0.484375,-0.3125 c -0.125,0.015625 -0.21875,0.015625 -0.21875,0.203125 0,0.015625 0,0.109375 0.140625,0.109375 0.296875,0 0.625,-0.03125 0.921875,-0.03125 C 1.703125,-0.03125 2.09375,0 2.453125,0 2.515625,0 2.625,0 2.625,-0.203125 2.625,-0.296875 2.53125,-0.3125 2.515625,-0.3125 c -0.09375,0 -0.40625,-0.03125 -0.40625,-0.3125 0,-0.15625 0.15625,-0.3125 0.265625,-0.4375 L 3.40625,-2.140625 4.296875,-3.125 l 1,2.390625 c 0.046875,0.109375 0.0625,0.109375 0.0625,0.140625 0,0.078125 -0.203125,0.25 -0.578125,0.28125 C 4.671875,-0.296875 4.578125,-0.296875 4.578125,-0.125 4.578125,0 4.6875,0 4.71875,0 5,0 5.703125,-0.03125 5.984375,-0.03125 6.234375,-0.03125 6.84375,0 7.09375,0 c 0.0625,0 0.1875,0 0.1875,-0.1875 0,-0.125 -0.109375,-0.125 -0.1875,-0.125 -0.65625,0 -0.6875,-0.03125 -0.859375,-0.4375 C 5.859375,-1.671875 5.1875,-3.234375 4.953125,-3.828125 5.625,-4.53125 6.671875,-5.71875 7,-5.984375 7.28125,-6.234375 7.671875,-6.46875 8.265625,-6.5 c 0.125,-0.015625 0.21875,-0.015625 0.21875,-0.203125 0,0 0,-0.109375 -0.125,-0.109375 -0.296875,0 -0.640625,0.03125 -0.9375,0.03125 -0.375,0 -0.75,-0.03125 -1.109375,-0.03125 -0.0625,0 -0.1875,0 -0.1875,0.203125 0,0.0625 0.046875,0.09375 0.109375,0.109375 0.09375,0.015625 0.40625,0.03125 0.40625,0.3125 0,0.140625 -0.109375,0.265625 -0.1875,0.359375 z m 0,0"
           id="path1581" />
      </symbol>
      <symbol
         overflow="visible"
         id="symbol4015">
        <path
           style="stroke:none"
           d="m 6.03125,-3.703125 c 0,-0.453125 -0.171875,-0.703125 -0.40625,-0.703125 -0.25,0 -0.515625,0.234375 -0.515625,0.46875 0,0.09375 0.046875,0.203125 0.140625,0.296875 0.171875,0.15625 0.359375,0.421875 0.359375,0.84375 0,0.390625 -0.203125,0.96875 -0.5,1.421875 C 4.8125,-0.953125 4.4375,-0.609375 3.96875,-0.609375 3.40625,-0.609375 3.09375,-0.96875 3,-1.5 c 0.109375,-0.265625 0.34375,-0.90625 0.34375,-1.1875 0,-0.109375 -0.046875,-0.21875 -0.1875,-0.21875 -0.078125,0 -0.1875,0.03125 -0.265625,0.171875 C 2.78125,-2.53125 2.65625,-1.890625 2.65625,-1.53125 2.328125,-1.0625 1.9375,-0.609375 1.3125,-0.609375 c -0.671875,0 -0.875,-0.59375 -0.875,-1.140625 0,-1.25 1.015625,-2.296875 1.015625,-2.421875 0,-0.109375 -0.078125,-0.1875 -0.1875,-0.1875 -0.125,0 -0.203125,0.125 -0.265625,0.21875 -0.5,0.734375 -0.875,1.921875 -0.875,2.828125 0,0.6875 0.21875,1.421875 1.046875,1.421875 0.703125,0 1.171875,-0.5 1.53125,-1.046875 0.09375,0.578125 0.484375,1.046875 1.09375,1.046875 0.78125,0 1.25,-0.609375 1.609375,-1.359375 0.25,-0.484375 0.625,-1.84375 0.625,-2.453125 z m 0,0"
           id="path1509" />
      </symbol>
      <symbol
         overflow="visible"
         id="symbol5537">
        <path
           style="stroke:none"
           d=""
           id="path758" />
      </symbol>
      <symbol
         overflow="visible"
         id="symbol8411">
        <path
           style="stroke:none"
           d="m 2.265625,-4.359375 c 0,-0.109375 -0.09375,-0.265625 -0.28125,-0.265625 -0.1875,0 -0.390625,0.1875 -0.390625,0.390625 0,0.109375 0.078125,0.265625 0.28125,0.265625 0.1875,0 0.390625,-0.203125 0.390625,-0.390625 z M 0.84375,-0.8125 c -0.03125,0.09375 -0.0625,0.171875 -0.0625,0.296875 0,0.328125 0.265625,0.578125 0.65625,0.578125 0.6875,0 1,-0.953125 1,-1.0625 0,-0.09375 -0.09375,-0.09375 -0.109375,-0.09375 -0.09375,0 -0.109375,0.046875 -0.140625,0.125 -0.15625,0.5625 -0.453125,0.84375 -0.734375,0.84375 -0.140625,0 -0.171875,-0.09375 -0.171875,-0.25 0,-0.15625 0.046875,-0.28125 0.109375,-0.4375 C 1.46875,-1 1.546875,-1.1875 1.609375,-1.375 1.671875,-1.546875 1.9375,-2.171875 1.953125,-2.265625 1.984375,-2.328125 2,-2.40625 2,-2.484375 2,-2.8125 1.71875,-3.078125 1.34375,-3.078125 0.640625,-3.078125 0.328125,-2.125 0.328125,-2 c 0,0.078125 0.09375,0.078125 0.125,0.078125 0.09375,0 0.09375,-0.03125 0.125,-0.109375 C 0.75,-2.625 1.0625,-2.875 1.3125,-2.875 c 0.109375,0 0.171875,0.046875 0.171875,0.234375 0,0.171875 -0.03125,0.265625 -0.203125,0.703125 z m 0,0"
           id="path3858" />
      </symbol>
      <symbol
         overflow="visible"
         id="symbol2941">
        <path
           style="stroke:none"
           d=""
           id="path5184" />
      </symbol>
      <symbol
         overflow="visible"
         id="symbol4446">
        <path
           style="stroke:none"
           d="m 3.296875,2.390625 c 0,-0.03125 0,-0.046875 -0.171875,-0.21875 C 1.890625,0.921875 1.5625,-0.96875 1.5625,-2.5 c 0,-1.734375 0.375,-3.46875 1.609375,-4.703125 0.125,-0.125 0.125,-0.140625 0.125,-0.171875 0,-0.078125 -0.03125,-0.109375 -0.09375,-0.109375 -0.109375,0 -1,0.6875 -1.59375,1.953125 -0.5,1.09375 -0.625,2.203125 -0.625,3.03125 0,0.78125 0.109375,1.984375 0.65625,3.125 C 2.25,1.84375 3.09375,2.5 3.203125,2.5 c 0.0625,0 0.09375,-0.03125 0.09375,-0.109375 z m 0,0"
           id="path4609" />
      </symbol>
      <symbol
         overflow="visible"
         id="symbol943">
        <path
           style="stroke:none"
           d="m 2.875,-2.5 c 0,-0.765625 -0.109375,-1.96875 -0.65625,-3.109375 -0.59375,-1.21875 -1.453125,-1.875 -1.546875,-1.875 -0.0625,0 -0.109375,0.046875 -0.109375,0.109375 0,0.03125 0,0.046875 0.1875,0.234375 0.984375,0.984375 1.546875,2.5625 1.546875,4.640625 0,1.71875 -0.359375,3.46875 -1.59375,4.71875 C 0.5625,2.34375 0.5625,2.359375 0.5625,2.390625 0.5625,2.453125 0.609375,2.5 0.671875,2.5 0.765625,2.5 1.671875,1.8125 2.25,0.546875 2.765625,-0.546875 2.875,-1.65625 2.875,-2.5 Z m 0,0"
           id="path5555" />
      </symbol>
    </g>
    <g
       id="g2575">
      <symbol
         overflow="visible"
         id="symbol3603">
        <path
           style="stroke:none"
           d=""
           id="path9685" />
      </symbol>
      <symbol
         overflow="visible"
         id="symbol8856">
        <path
           style="stroke:none"
           d="M 6.75,-1.609375 H 6.5 c -0.046875,0.25 -0.09375,0.484375 -0.1875,0.71875 -0.046875,0.15625 -0.078125,0.25 -0.65625,0.25 H 4.859375 C 5,-1.203125 5.296875,-1.6875 5.75,-2.34375 c 0.46875,-0.703125 0.875,-1.390625 0.875,-2.1875 0,-1.375 -1.34375,-2.5 -3.03125,-2.5 -1.703125,0 -3.03125,1.140625 -3.03125,2.5 0,0.796875 0.40625,1.484375 0.875,2.1875 0.4375,0.65625 0.75,1.140625 0.890625,1.703125 H 1.53125 C 0.953125,-0.640625 0.921875,-0.734375 0.875,-0.875 0.78125,-1.109375 0.734375,-1.359375 0.6875,-1.609375 h -0.25 L 0.765625,0 h 1.59375 c 0.21875,0 0.25,0 0.25,-0.203125 0,-0.703125 -0.3125,-1.578125 -0.53125,-2.21875 -0.21875,-0.578125 -0.5,-1.359375 -0.5,-2.109375 0,-1.59375 1.109375,-2.28125 2.015625,-2.28125 0.953125,0 2.015625,0.71875 2.015625,2.28125 0,0.75 -0.28125,1.5 -0.5625,2.3125 -0.15625,0.421875 -0.46875,1.328125 -0.46875,2.015625 C 4.578125,0 4.609375,0 4.828125,0 h 1.59375 z m 0,0"
           id="path6986" />
      </symbol>
    </g>
    <g
       id="g4789">
      <symbol
         overflow="visible"
         id="symbol8903">
        <path
           style="stroke:none"
           d=""
           id="path6681" />
      </symbol>
      <symbol
         overflow="visible"
         id="symbol4696">
        <path
           style="stroke:none"
           d="M 4.28125,-5.578125 V -5.875 H 0.6875 v 0.296875 z m 0,0"
           id="path4785" />
      </symbol>
      <symbol
         overflow="visible"
         id="symbol2833">
        <path
           style="stroke:none"
           d="m 3.296875,2.390625 c 0,-0.03125 0,-0.046875 -0.171875,-0.21875 C 1.890625,0.921875 1.5625,-0.96875 1.5625,-2.5 c 0,-1.734375 0.375,-3.46875 1.609375,-4.703125 0.125,-0.125 0.125,-0.140625 0.125,-0.171875 0,-0.078125 -0.03125,-0.109375 -0.09375,-0.109375 -0.109375,0 -1,0.6875 -1.59375,1.953125 -0.5,1.09375 -0.625,2.203125 -0.625,3.03125 0,0.78125 0.109375,1.984375 0.65625,3.125 C 2.25,1.84375 3.09375,2.5 3.203125,2.5 c 0.0625,0 0.09375,-0.03125 0.09375,-0.109375 z m 0,0"
           id="path943" />
      </symbol>
      <symbol
         overflow="visible"
         id="symbol5620">
        <path
           style="stroke:none"
           d="M 6.75,-1.609375 H 6.5 c -0.046875,0.25 -0.09375,0.484375 -0.1875,0.71875 -0.046875,0.15625 -0.078125,0.25 -0.65625,0.25 H 4.859375 C 5,-1.203125 5.296875,-1.6875 5.75,-2.34375 c 0.46875,-0.703125 0.875,-1.390625 0.875,-2.1875 0,-1.375 -1.34375,-2.5 -3.03125,-2.5 -1.703125,0 -3.03125,1.140625 -3.03125,2.5 0,0.796875 0.40625,1.484375 0.875,2.1875 0.4375,0.65625 0.75,1.140625 0.890625,1.703125 H 1.53125 C 0.953125,-0.640625 0.921875,-0.734375 0.875,-0.875 0.78125,-1.109375 0.734375,-1.359375 0.6875,-1.609375 h -0.25 L 0.765625,0 h 1.59375 c 0.21875,0 0.25,0 0.25,-0.203125 0,-0.703125 -0.3125,-1.578125 -0.53125,-2.21875 -0.21875,-0.578125 -0.5,-1.359375 -0.5,-2.109375 0,-1.59375 1.109375,-2.28125 2.015625,-2.28125 0.953125,0 2.015625,0.71875 2.015625,2.28125 0,0.75 -0.28125,1.5 -0.5625,2.3125 -0.15625,0.421875 -0.46875,1.328125 -0.46875,2.015625 C 4.578125,0 4.609375,0 4.828125,0 h 1.59375 z m 0,0"
           id="path8294" />
      </symbol>
      <symbol
         overflow="visible"
         id="symbol2054">
        <path
           style="stroke:none"
           d="m 2.875,-2.5 c 0,-0.765625 -0.109375,-1.96875 -0.65625,-3.109375 -0.59375,-1.21875 -1.453125,-1.875 -1.546875,-1.875 -0.0625,0 -0.109375,0.046875 -0.109375,0.109375 0,0.03125 0,0.046875 0.1875,0.234375 0.984375,0.984375 1.546875,2.5625 1.546875,4.640625 0,1.71875 -0.359375,3.46875 -1.59375,4.71875 C 0.5625,2.34375 0.5625,2.359375 0.5625,2.390625 0.5625,2.453125 0.609375,2.5 0.671875,2.5 0.765625,2.5 1.671875,1.8125 2.25,0.546875 2.765625,-0.546875 2.875,-1.65625 2.875,-2.5 Z m 0,0"
           id="path4589" />
      </symbol>
      <symbol
         overflow="visible"
         id="symbol8754">
        <path
           style="stroke:none"
           d="m 2.9375,-6.375 c 0,-0.25 0,-0.265625 -0.234375,-0.265625 C 2.078125,-6 1.203125,-6 0.890625,-6 v 0.3125 c 0.203125,0 0.78125,0 1.296875,-0.265625 v 5.171875 c 0,0.359375 -0.03125,0.46875 -0.921875,0.46875 h -0.3125 V 0 c 0.34375,-0.03125 1.203125,-0.03125 1.609375,-0.03125 0.390625,0 1.265625,0 1.609375,0.03125 v -0.3125 h -0.3125 c -0.90625,0 -0.921875,-0.109375 -0.921875,-0.46875 z m 0,0"
           id="path2881" />
      </symbol>
      <symbol
         overflow="visible"
         id="symbol6701">
        <path
           style="stroke:none"
           d=""
           id="path7110" />
      </symbol>
      <symbol
         overflow="visible"
         id="symbol2396">
        <path
           style="stroke:none"
           d="m 0.875,-0.59375 c -0.03125,0.15625 -0.09375,0.390625 -0.09375,0.4375 0,0.171875 0.140625,0.265625 0.296875,0.265625 0.125,0 0.296875,-0.078125 0.375,-0.28125 C 1.46875,-0.203125 1.796875,-1.5625 1.84375,-1.75 c 0.078125,-0.328125 0.265625,-1.015625 0.3125,-1.296875 0.046875,-0.125 0.328125,-0.59375 0.5625,-0.8125 0.078125,-0.0625 0.375,-0.328125 0.796875,-0.328125 0.265625,0 0.40625,0.125 0.421875,0.125 -0.296875,0.046875 -0.515625,0.28125 -0.515625,0.546875 0,0.15625 0.109375,0.34375 0.375,0.34375 0.265625,0 0.546875,-0.234375 0.546875,-0.59375 0,-0.34375 -0.3125,-0.640625 -0.828125,-0.640625 C 2.875,-4.40625 2.4375,-3.921875 2.25,-3.640625 2.15625,-4.09375 1.796875,-4.40625 1.328125,-4.40625 0.875,-4.40625 0.6875,-4.015625 0.59375,-3.84375 0.421875,-3.5 0.296875,-2.90625 0.296875,-2.875 c 0,0.109375 0.09375,0.109375 0.109375,0.109375 0.109375,0 0.109375,-0.015625 0.171875,-0.234375 0.171875,-0.703125 0.375,-1.1875 0.734375,-1.1875 0.15625,0 0.296875,0.078125 0.296875,0.453125 0,0.21875 -0.03125,0.328125 -0.15625,0.84375 z m 0,0"
           id="path7648" />
      </symbol>
      <symbol
         overflow="visible"
         id="symbol7612">
        <path
           style="stroke:none"
           d="m 2.96875,-2.25 c 0.15625,0 0.34375,0 0.34375,-0.171875 C 3.3125,-2.5625 3.1875,-2.5625 3.015625,-2.5625 H 1.40625 c 0.234375,-0.84375 0.796875,-1.421875 1.703125,-1.421875 h 0.3125 c 0.171875,0 0.328125,0 0.328125,-0.171875 0,-0.140625 -0.125,-0.140625 -0.296875,-0.140625 H 3.09375 c -1.296875,0 -2.625,1 -2.625,2.515625 0,1.109375 0.75,1.890625 1.796875,1.890625 0.65625,0 1.296875,-0.40625 1.296875,-0.515625 0,-0.015625 0,-0.125 -0.09375,-0.125 -0.015625,0 -0.046875,0 -0.125,0.046875 -0.3125,0.203125 -0.6875,0.375 -1.046875,0.375 -0.578125,0 -1.078125,-0.421875 -1.078125,-1.296875 0,-0.34375 0.078125,-0.734375 0.109375,-0.84375 z m 0,0"
           id="path5945" />
      </symbol>
      <symbol
         overflow="visible"
         id="symbol6283">
        <path
           style="stroke:none"
           d=""
           id="path2035" />
      </symbol>
      <symbol
         overflow="visible"
         id="symbol1879">
        <path
           style="stroke:none"
           d="m 2.015625,-3.296875 c 0.0625,-0.109375 0.0625,-0.171875 0.0625,-0.21875 0,-0.21875 -0.1875,-0.375 -0.40625,-0.375 -0.265625,0 -0.34375,0.21875 -0.375,0.328125 L 0.375,-0.546875 c -0.015625,0.015625 -0.046875,0.09375 -0.046875,0.109375 0,0.078125 0.21875,0.15625 0.28125,0.15625 0.046875,0 0.046875,-0.015625 0.09375,-0.125 z m 0,0"
           id="path3254" />
      </symbol>
      <symbol
         overflow="visible"
         id="symbol4253">
        <path
           style="stroke:none"
           d=""
           id="path3027" />
      </symbol>
      <symbol
         overflow="visible"
         id="symbol254">
        <path
           style="stroke:none"
           d="m 6.71875,-3.234375 c 0.140625,-0.0625 0.203125,-0.125 0.203125,-0.21875 0,-0.09375 -0.046875,-0.15625 -0.203125,-0.21875 l -5.5,-2.59375 C 1.09375,-6.34375 1.046875,-6.34375 1.03125,-6.34375 c -0.125,0 -0.203125,0.09375 -0.203125,0.203125 0,0.125 0.078125,0.171875 0.1875,0.21875 L 6.25,-3.453125 1.03125,-1 c -0.1875,0.09375 -0.203125,0.171875 -0.203125,0.234375 0,0.109375 0.09375,0.203125 0.203125,0.203125 0.03125,0 0.046875,0 0.171875,-0.078125 z M 6.5625,1.359375 c 0.171875,0 0.359375,0 0.359375,-0.1875 0,-0.203125 -0.21875,-0.203125 -0.359375,-0.203125 h -5.375 c -0.15625,0 -0.359375,0 -0.359375,0.203125 0,0.1875 0.171875,0.1875 0.34375,0.1875 z m 0,0"
           id="path9023" />
      </symbol>
      <symbol
         overflow="visible"
         id="symbol6942">
        <path
           style="stroke:none"
           d="m 6.5625,-2.296875 c 0.171875,0 0.359375,0 0.359375,-0.203125 0,-0.1875 -0.1875,-0.1875 -0.359375,-0.1875 H 1.171875 c -0.171875,0 -0.34375,0 -0.34375,0.1875 0,0.203125 0.171875,0.203125 0.34375,0.203125 z m 0,0"
           id="path1803" />
      </symbol>
    </g>
    <g
       id="g8252">
      <symbol
         overflow="visible"
         id="symbol5883">
        <path
           style="stroke:none"
           d=""
           id="path5539" />
      </symbol>
      <symbol
         overflow="visible"
         id="symbol7765">
        <path
           style="stroke:none"
           d="M 2.5,-6.921875 1.15625,-5.5625 1.328125,-5.390625 2.5,-6.40625 3.640625,-5.390625 3.8125,-5.5625 Z m 0,0"
           id="path7416" />
      </symbol>
      <symbol
         overflow="visible"
         id="symbol844">
        <path
           style="stroke:none"
           d="m 6.84375,-3.265625 c 0.15625,0 0.34375,0 0.34375,-0.1875 C 7.1875,-3.65625 7,-3.65625 6.859375,-3.65625 h -5.96875 c -0.140625,0 -0.328125,0 -0.328125,0.203125 0,0.1875 0.1875,0.1875 0.328125,0.1875 z m 0.015625,1.9375 c 0.140625,0 0.328125,0 0.328125,-0.203125 0,-0.1875 -0.1875,-0.1875 -0.34375,-0.1875 H 0.890625 c -0.140625,0 -0.328125,0 -0.328125,0.1875 0,0.203125 0.1875,0.203125 0.328125,0.203125 z m 0,0"
           id="path2491" />
      </symbol>
      <symbol
         overflow="visible"
         id="symbol8868">
        <path
           style="stroke:none"
           d="m 3.3125,-0.75 c 0.046875,0.390625 0.3125,0.8125 0.78125,0.8125 0.21875,0 0.828125,-0.140625 0.828125,-0.953125 v -0.5625 h -0.25 v 0.5625 c 0,0.578125 -0.25,0.640625 -0.359375,0.640625 -0.328125,0 -0.375,-0.453125 -0.375,-0.5 v -1.984375 c 0,-0.421875 0,-0.8125 -0.359375,-1.1875 C 3.1875,-4.3125 2.6875,-4.46875 2.21875,-4.46875 c -0.828125,0 -1.515625,0.46875 -1.515625,1.125 0,0.296875 0.203125,0.46875 0.46875,0.46875 0.28125,0 0.453125,-0.203125 0.453125,-0.453125 0,-0.125 -0.046875,-0.453125 -0.515625,-0.453125 C 1.390625,-4.140625 1.875,-4.25 2.1875,-4.25 c 0.5,0 1.0625,0.390625 1.0625,1.28125 v 0.359375 c -0.515625,0.03125 -1.203125,0.0625 -1.828125,0.359375 -0.75,0.34375 -1,0.859375 -1,1.296875 0,0.8125 0.96875,1.0625 1.59375,1.0625 0.65625,0 1.109375,-0.40625 1.296875,-0.859375 z M 3.25,-2.390625 v 1 c 0,0.9375 -0.71875,1.28125 -1.171875,1.28125 -0.484375,0 -0.890625,-0.34375 -0.890625,-0.84375 0,-0.546875 0.421875,-1.375 2.0625,-1.4375 z m 0,0"
           id="path528" />
      </symbol>
      <symbol
         overflow="visible"
         id="symbol4360">
        <path
           style="stroke:none"
           d="M 1.671875,-3.3125 V -4.40625 L 0.28125,-4.296875 v 0.3125 c 0.703125,0 0.78125,0.0625 0.78125,0.5625 V -0.75 c 0,0.4375 -0.109375,0.4375 -0.78125,0.4375 V 0 c 0.390625,-0.015625 0.859375,-0.03125 1.140625,-0.03125 0.390625,0 0.859375,0 1.265625,0.03125 V -0.3125 H 2.46875 c -0.734375,0 -0.75,-0.109375 -0.75,-0.46875 V -2.3125 c 0,-0.984375 0.421875,-1.875 1.171875,-1.875 0.0625,0 0.09375,0 0.109375,0.015625 -0.03125,0 -0.234375,0.125 -0.234375,0.390625 0,0.265625 0.21875,0.421875 0.4375,0.421875 0.171875,0 0.421875,-0.125 0.421875,-0.4375 0,-0.3125 -0.3125,-0.609375 -0.734375,-0.609375 -0.734375,0 -1.09375,0.671875 -1.21875,1.09375 z m 0,0"
           id="path4610" />
      </symbol>
      <symbol
         overflow="visible"
         id="symbol1288">
        <path
           style="stroke:none"
           d="m 2.21875,-1.71875 c -0.875,0 -0.875,-1 -0.875,-1.21875 0,-0.265625 0.015625,-0.59375 0.15625,-0.84375 0.078125,-0.109375 0.3125,-0.390625 0.71875,-0.390625 0.859375,0 0.859375,0.984375 0.859375,1.21875 0,0.265625 0,0.59375 -0.15625,0.84375 C 2.84375,-2 2.609375,-1.71875 2.21875,-1.71875 Z M 1.0625,-1.328125 c 0,-0.03125 0,-0.265625 0.15625,-0.46875 0.390625,0.28125 0.8125,0.3125 1,0.3125 0.921875,0 1.609375,-0.6875 1.609375,-1.453125 0,-0.375 -0.15625,-0.734375 -0.40625,-0.96875 C 3.78125,-4.25 4.140625,-4.296875 4.3125,-4.296875 c 0.03125,0 0.078125,0 0.109375,0.015625 C 4.3125,-4.25 4.25,-4.140625 4.25,-4.015625 c 0,0.171875 0.140625,0.28125 0.296875,0.28125 0.09375,0 0.28125,-0.0625 0.28125,-0.296875 0,-0.171875 -0.109375,-0.484375 -0.5,-0.484375 -0.203125,0 -0.640625,0.0625 -1.0625,0.46875 C 2.84375,-4.375 2.4375,-4.40625 2.21875,-4.40625 c -0.9375,0 -1.625,0.6875 -1.625,1.453125 0,0.4375 0.21875,0.8125 0.46875,1.03125 -0.125,0.140625 -0.3125,0.46875 -0.3125,0.828125 0,0.3125 0.140625,0.6875 0.453125,0.890625 -0.609375,0.15625 -0.921875,0.59375 -0.921875,0.984375 0,0.71875 0.984375,1.265625 2.203125,1.265625 1.171875,0 2.203125,-0.5 2.203125,-1.28125 0,-0.34375 -0.125,-0.859375 -0.640625,-1.140625 -0.53125,-0.265625 -1.109375,-0.265625 -1.71875,-0.265625 -0.25,0 -0.671875,0 -0.75,-0.015625 C 1.265625,-0.703125 1.0625,-1 1.0625,-1.328125 Z M 2.5,1.828125 c -1.015625,0 -1.703125,-0.515625 -1.703125,-1.046875 0,-0.453125 0.375,-0.828125 0.8125,-0.84375 h 0.59375 c 0.859375,0 1.96875,0 1.96875,0.84375 0,0.546875 -0.703125,1.046875 -1.671875,1.046875 z m 0,0"
           id="path2546" />
      </symbol>
      <symbol
         overflow="visible"
         id="symbol8931">
        <path
           style="stroke:none"
           d="M 1.09375,-3.421875 V -0.75 c 0,0.4375 -0.109375,0.4375 -0.78125,0.4375 V 0 c 0.359375,-0.015625 0.859375,-0.03125 1.140625,-0.03125 0.25,0 0.765625,0.015625 1.109375,0.03125 v -0.3125 c -0.671875,0 -0.78125,0 -0.78125,-0.4375 V -2.59375 C 1.78125,-3.625 2.5,-4.1875 3.125,-4.1875 c 0.640625,0 0.75,0.53125 0.75,1.109375 V -0.75 c 0,0.4375 -0.109375,0.4375 -0.78125,0.4375 V 0 c 0.34375,-0.015625 0.859375,-0.03125 1.125,-0.03125 0.25,0 0.78125,0.015625 1.109375,0.03125 v -0.3125 c -0.65625,0 -0.765625,0 -0.765625,-0.4375 v -1.84375 c 0,-1.03125 0.703125,-1.59375 1.34375,-1.59375 0.625,0 0.734375,0.53125 0.734375,1.109375 V -0.75 c 0,0.4375 -0.109375,0.4375 -0.78125,0.4375 V 0 c 0.34375,-0.015625 0.859375,-0.03125 1.125,-0.03125 0.265625,0 0.78125,0.015625 1.125,0.03125 v -0.3125 c -0.515625,0 -0.765625,0 -0.78125,-0.296875 v -1.90625 c 0,-0.859375 0,-1.15625 -0.3125,-1.515625 -0.140625,-0.171875 -0.46875,-0.375 -1.046875,-0.375 -0.828125,0 -1.28125,0.59375 -1.4375,0.984375 C 4.390625,-4.296875 3.65625,-4.40625 3.203125,-4.40625 2.46875,-4.40625 2,-3.984375 1.71875,-3.359375 V -4.40625 L 0.3125,-4.296875 v 0.3125 c 0.703125,0 0.78125,0.0625 0.78125,0.5625 z m 0,0"
           id="path5987" />
      </symbol>
      <symbol
         overflow="visible"
         id="symbol9790">
        <path
           style="stroke:none"
           d="M 2.859375,-2.34375 C 3.15625,-2.71875 3.53125,-3.203125 3.78125,-3.46875 4.09375,-3.828125 4.5,-3.984375 4.96875,-3.984375 v -0.3125 c -0.265625,0.015625 -0.5625,0.03125 -0.828125,0.03125 -0.296875,0 -0.828125,-0.015625 -0.953125,-0.03125 v 0.3125 c 0.21875,0.015625 0.296875,0.140625 0.296875,0.3125 0,0.15625 -0.109375,0.28125 -0.15625,0.34375 L 2.71875,-2.546875 1.9375,-3.5625 C 1.84375,-3.65625 1.84375,-3.671875 1.84375,-3.734375 c 0,-0.15625 0.15625,-0.25 0.34375,-0.25 v -0.3125 c -0.25,0.015625 -0.90625,0.03125 -1.078125,0.03125 -0.203125,0 -0.671875,-0.015625 -0.9375,-0.03125 v 0.3125 c 0.703125,0 0.703125,0 1.171875,0.609375 l 0.984375,1.28125 -0.9375,1.1875 C 0.921875,-0.328125 0.328125,-0.3125 0.125,-0.3125 V 0 c 0.25,-0.015625 0.5625,-0.03125 0.828125,-0.03125 0.28125,0 0.703125,0.015625 0.9375,0.03125 v -0.3125 c -0.21875,-0.03125 -0.28125,-0.15625 -0.28125,-0.3125 0,-0.21875 0.28125,-0.546875 0.890625,-1.265625 l 0.765625,1 C 3.34375,-0.78125 3.46875,-0.625 3.46875,-0.5625 c 0,0.09375 -0.09375,0.25 -0.359375,0.25 V 0 C 3.40625,-0.015625 3.96875,-0.03125 4.1875,-0.03125 c 0.265625,0 0.65625,0.015625 0.953125,0.03125 v -0.3125 c -0.53125,0 -0.71875,-0.015625 -0.9375,-0.3125 z m 0,0"
           id="path6356" />
      </symbol>
      <symbol
         overflow="visible"
         id="symbol3753">
        <path
           style="stroke:none"
           d="m 0.5625,-3.40625 c 0,2.0625 1.609375,3.625 3.46875,3.625 1.625,0 2.59375,-1.390625 2.59375,-2.546875 C 6.625,-2.421875 6.625,-2.5 6.5,-2.5 6.390625,-2.5 6.390625,-2.4375 6.375,-2.328125 6.296875,-0.90625 5.234375,-0.09375 4.140625,-0.09375 c -0.609375,0 -2.5625,-0.328125 -2.5625,-3.3125 0,-2.96875 1.953125,-3.3125 2.5625,-3.3125 1.078125,0 1.96875,0.90625 2.171875,2.359375 C 6.328125,-4.21875 6.328125,-4.1875 6.46875,-4.1875 6.625,-4.1875 6.625,-4.21875 6.625,-4.421875 V -6.78125 c 0,-0.171875 0,-0.25 -0.109375,-0.25 -0.03125,0 -0.078125,0 -0.15625,0.125 l -0.5,0.734375 C 5.5,-6.53125 4.984375,-7.03125 4.03125,-7.03125 c -1.875,0 -3.46875,1.59375 -3.46875,3.625 z m 0,0"
           id="path4086" />
      </symbol>
      <symbol
         overflow="visible"
         id="symbol220">
        <path
           style="stroke:none"
           d="M 2.25,-6.03125 C 2.25,-6.390625 2.265625,-6.5 3.0625,-6.5 h 0.25 v -0.3125 c -0.34375,0.03125 -1.125,0.03125 -1.515625,0.03125 -0.375,0 -1.171875,0 -1.515625,-0.03125 V -6.5 h 0.25 c 0.796875,0 0.828125,0.109375 0.828125,0.46875 v 5.25 c 0,0.359375 -0.03125,0.46875 -0.828125,0.46875 h -0.25 V 0 c 0.34375,-0.03125 1.140625,-0.03125 1.515625,-0.03125 0.390625,0 1.171875,0 1.515625,0.03125 v -0.3125 h -0.25 C 2.265625,-0.3125 2.25,-0.421875 2.25,-0.78125 Z m 0,0"
           id="path477" />
      </symbol>
      <symbol
         overflow="visible"
         id="symbol3268">
        <path
           style="stroke:none"
           d="m 3.484375,-3.875 -1.28125,-0.296875 c -0.625,-0.15625 -1,-0.6875 -1,-1.265625 0,-0.703125 0.53125,-1.3125 1.3125,-1.3125 1.65625,0 1.875,1.640625 1.9375,2.078125 0.015625,0.0625 0.015625,0.125 0.125,0.125 0.125,0 0.125,-0.046875 0.125,-0.234375 v -2 c 0,-0.171875 0,-0.25 -0.109375,-0.25 -0.0625,0 -0.078125,0.015625 -0.140625,0.140625 l -0.359375,0.5625 C 3.796875,-6.625 3.390625,-7.03125 2.5,-7.03125 c -1.109375,0 -1.9375,0.875 -1.9375,1.9375 0,0.828125 0.53125,1.5625 1.296875,1.828125 0.109375,0.03125 0.625,0.15625 1.328125,0.328125 0.265625,0.0625 0.5625,0.140625 0.84375,0.5 0.203125,0.265625 0.3125,0.59375 0.3125,0.921875 0,0.703125 -0.5,1.421875 -1.34375,1.421875 -0.28125,0 -1.046875,-0.046875 -1.578125,-0.53125 C 0.84375,-1.171875 0.8125,-1.796875 0.8125,-2.15625 0.796875,-2.265625 0.71875,-2.265625 0.6875,-2.265625 c -0.125,0 -0.125,0.078125 -0.125,0.25 v 2 c 0,0.171875 0,0.234375 0.109375,0.234375 0.0625,0 0.078125,-0.015625 0.140625,-0.125 0,-0.015625 0.03125,-0.046875 0.359375,-0.578125 0.3125,0.34375 0.953125,0.703125 1.84375,0.703125 1.15625,0 1.953125,-0.96875 1.953125,-2.078125 0,-0.984375 -0.65625,-1.8125 -1.484375,-2.015625 z m 0,0"
           id="path7979" />
      </symbol>
      <symbol
         overflow="visible"
         id="symbol3817">
        <path
           style="stroke:none"
           d="m 3.296875,2.390625 c 0,-0.03125 0,-0.046875 -0.171875,-0.21875 C 1.890625,0.921875 1.5625,-0.96875 1.5625,-2.5 c 0,-1.734375 0.375,-3.46875 1.609375,-4.703125 0.125,-0.125 0.125,-0.140625 0.125,-0.171875 0,-0.078125 -0.03125,-0.109375 -0.09375,-0.109375 -0.109375,0 -1,0.6875 -1.59375,1.953125 -0.5,1.09375 -0.625,2.203125 -0.625,3.03125 0,0.78125 0.109375,1.984375 0.65625,3.125 C 2.25,1.84375 3.09375,2.5 3.203125,2.5 c 0.0625,0 0.09375,-0.03125 0.09375,-0.109375 z m 0,0"
           id="path6860" />
      </symbol>
      <symbol
         overflow="visible"
         id="symbol4058">
        <path
           style="stroke:none"
           d="m 2.875,-2.5 c 0,-0.765625 -0.109375,-1.96875 -0.65625,-3.109375 -0.59375,-1.21875 -1.453125,-1.875 -1.546875,-1.875 -0.0625,0 -0.109375,0.046875 -0.109375,0.109375 0,0.03125 0,0.046875 0.1875,0.234375 0.984375,0.984375 1.546875,2.5625 1.546875,4.640625 0,1.71875 -0.359375,3.46875 -1.59375,4.71875 C 0.5625,2.34375 0.5625,2.359375 0.5625,2.390625 0.5625,2.453125 0.609375,2.5 0.671875,2.5 0.765625,2.5 1.671875,1.8125 2.25,0.546875 2.765625,-0.546875 2.875,-1.65625 2.875,-2.5 Z m 0,0"
           id="path2186" />
      </symbol>
      <symbol
         overflow="visible"
         id="symbol190">
        <path
           style="stroke:none"
           d=""
           id="path8515" />
      </symbol>
      <symbol
         overflow="visible"
         id="symbol4934">
        <path
           style="stroke:none"
           d="m 4.53125,-4.984375 c 0,-0.65625 -0.171875,-2.046875 -1.1875,-2.046875 -1.390625,0 -2.921875,2.8125 -2.921875,5.09375 0,0.9375 0.28125,2.046875 1.1875,2.046875 1.40625,0 2.921875,-2.859375 2.921875,-5.09375 z M 1.46875,-3.625 C 1.640625,-4.25 1.84375,-5.046875 2.25,-5.765625 2.515625,-6.25 2.875,-6.8125 3.328125,-6.8125 c 0.484375,0 0.546875,0.640625 0.546875,1.203125 0,0.5 -0.078125,1 -0.3125,1.984375 z m 2,0.328125 C 3.359375,-2.84375 3.15625,-2 2.765625,-1.28125 c -0.34375,0.6875 -0.71875,1.171875 -1.15625,1.171875 -0.328125,0 -0.53125,-0.296875 -0.53125,-1.21875 0,-0.421875 0.0625,-1 0.3125,-1.96875 z m 0,0"
           id="path8842" />
      </symbol>
      <symbol
         overflow="visible"
         id="symbol3373">
        <path
           style="stroke:none"
           d="m 4.359375,-6.671875 c 0,-0.03125 0.03125,-0.140625 0.03125,-0.140625 0,-0.015625 0,-0.109375 -0.125,-0.109375 -0.09375,0 -0.109375,0.03125 -0.15625,0.203125 L 3.53125,-4.421875 c -1.578125,0.0625 -3.046875,1.375 -3.046875,2.734375 0,0.953125 0.703125,1.734375 1.921875,1.8125 C 2.328125,0.421875 2.25,0.75 2.171875,1.0625 c -0.125,0.46875 -0.21875,0.84375 -0.21875,0.875 0,0.09375 0.078125,0.109375 0.125,0.109375 C 2.125,2.046875 2.140625,2.03125 2.171875,2 2.1875,1.984375 2.25,1.75 2.28125,1.609375 L 2.65625,0.125 c 1.609375,-0.0625 3.0625,-1.40625 3.0625,-2.734375 0,-0.796875 -0.53125,-1.703125 -1.921875,-1.8125 z m -1.90625,6.578125 c -0.59375,-0.03125 -1.3125,-0.390625 -1.3125,-1.375 0,-1.203125 0.859375,-2.59375 2.34375,-2.734375 z m 1.28125,-4.109375 c 0.765625,0.046875 1.328125,0.5 1.328125,1.375 0,1.1875 -0.859375,2.609375 -2.34375,2.734375 z m 0,0"
           id="path7286" />
      </symbol>
      <symbol
         overflow="visible"
         id="symbol9372">
        <path
           style="stroke:none"
           d=""
           id="path2401" />
      </symbol>
      <symbol
         overflow="visible"
         id="symbol1877">
        <path
           style="stroke:none"
           d="m 4.765625,-2.578125 c 0,-0.203125 -0.09375,-0.5 -0.375,-0.5 -0.171875,0 -0.359375,0.21875 -0.359375,0.390625 0,0.234375 0.375,0.28125 0.375,0.75 0,0.453125 -0.453125,1.453125 -1.234375,1.453125 -0.328125,0 -0.609375,-0.234375 -0.703125,-0.546875 0.09375,-0.140625 0.25,-0.625 0.25,-0.8125 0,-0.09375 -0.0625,-0.203125 -0.171875,-0.203125 -0.359375,0 -0.390625,0.75 -0.390625,1 -0.1875,0.25 -0.546875,0.5625 -1,0.5625 -0.375,0 -0.640625,-0.34375 -0.640625,-0.8125 0,-0.8125 0.703125,-1.484375 0.703125,-1.59375 0,-0.078125 -0.0625,-0.15625 -0.140625,-0.15625 -0.0625,0 -0.109375,0.03125 -0.15625,0.09375 -0.09375,0.109375 -0.1875,0.265625 -0.265625,0.40625 -0.25,0.421875 -0.421875,1 -0.421875,1.515625 0,0.546875 0.21875,1.09375 0.859375,1.09375 0.46875,0 0.875,-0.296875 1.125,-0.671875 0.140625,0.421875 0.4375,0.671875 0.890625,0.671875 1.21875,0 1.65625,-2.0625 1.65625,-2.640625 z m 0,0"
           id="path5638" />
      </symbol>
      <symbol
         overflow="visible"
         id="symbol3009">
        <path
           style="stroke:none"
           d="m 3.421875,-4.75 c 0,-0.09375 -0.078125,-0.09375 -0.109375,-0.09375 -0.109375,0 -0.109375,0.046875 -0.140625,0.15625 L 2.78125,-3.09375 c -1.234375,0.0625 -2.296875,0.953125 -2.296875,1.875 0,0.796875 0.71875,1.265625 1.5,1.296875 C 1.921875,0.296875 1.875,0.515625 1.8125,0.734375 1.734375,1.0625 1.671875,1.3125 1.671875,1.34375 c 0,0.078125 0.09375,0.078125 0.109375,0.078125 0.109375,0 0.109375,-0.015625 0.15625,-0.171875 L 2.21875,0.078125 c 1.203125,-0.046875 2.296875,-0.921875 2.296875,-1.875 0,-0.71875 -0.640625,-1.25 -1.5,-1.28125 z M 2.03125,-0.125 C 1.484375,-0.140625 1,-0.4375 1,-1.09375 1,-1.796875 1.53125,-2.78125 2.71875,-2.890625 Z m 0.9375,-2.765625 C 3.5,-2.859375 4,-2.578125 4,-1.90625 c 0,0.75 -0.59375,1.6875 -1.734375,1.78125 z m 0,0"
           id="path3073" />
      </symbol>
      <symbol
         overflow="visible"
         id="symbol6800">
        <path
           style="stroke:none"
           d="M 2.171875,-2.53125 H 3 c -0.109375,0.421875 -0.265625,1.046875 -0.265625,1.609375 0,0.28125 0.046875,0.46875 0.078125,0.609375 0.109375,0.359375 0.203125,0.375 0.3125,0.375 0.171875,0 0.328125,-0.140625 0.328125,-0.3125 0,-0.046875 -0.015625,-0.078125 -0.046875,-0.140625 C 3.265625,-0.65625 3.140625,-1.046875 3.140625,-1.625 c 0,-0.125 0,-0.40625 0.09375,-0.90625 h 0.875 c 0.125,0 0.1875,0 0.265625,-0.046875 0.09375,-0.078125 0.109375,-0.1875 0.109375,-0.21875 C 4.484375,-3 4.3125,-3 4.1875,-3 h -2.625 c -0.28125,0 -0.484375,0.0625 -0.796875,0.359375 -0.1875,0.15625 -0.453125,0.53125 -0.453125,0.59375 0,0.078125 0.09375,0.078125 0.125,0.078125 0.078125,0 0.078125,-0.015625 0.125,-0.078125 C 0.90625,-2.53125 1.34375,-2.53125 1.5,-2.53125 h 0.421875 c -0.21875,0.765625 -0.59375,1.59375 -0.796875,2.015625 -0.046875,0.078125 -0.109375,0.234375 -0.140625,0.25 0,0.03125 -0.015625,0.0625 -0.015625,0.109375 0,0.109375 0.078125,0.21875 0.25,0.21875 0.265625,0 0.34375,-0.3125 0.515625,-0.9375 z m 0,0"
           id="path2617" />
      </symbol>
      <symbol
         overflow="visible"
         id="symbol6400">
        <path
           style="stroke:none"
           d=""
           id="path1788" />
      </symbol>
      <symbol
         overflow="visible"
         id="symbol6282">
        <path
           style="stroke:none"
           d="M 3.59375,-2.21875 C 3.59375,-2.984375 3.5,-3.546875 3.1875,-4.03125 2.96875,-4.34375 2.53125,-4.625 1.984375,-4.625 c -1.625,0 -1.625,1.90625 -1.625,2.40625 0,0.5 0,2.359375 1.625,2.359375 1.609375,0 1.609375,-1.859375 1.609375,-2.359375 z M 1.984375,-0.0625 c -0.328125,0 -0.75,-0.1875 -0.890625,-0.75 C 1,-1.21875 1,-1.796875 1,-2.3125 1,-2.828125 1,-3.359375 1.09375,-3.734375 1.25,-4.28125 1.6875,-4.4375 1.984375,-4.4375 c 0.375,0 0.734375,0.234375 0.859375,0.640625 0.109375,0.375 0.125,0.875 0.125,1.484375 0,0.515625 0,1.03125 -0.09375,1.46875 -0.140625,0.640625 -0.609375,0.78125 -0.890625,0.78125 z m 0,0"
           id="path454" />
      </symbol>
      <symbol
         overflow="visible"
         id="symbol7783">
        <path
           style="stroke:none"
           d="M 3.515625,-1.265625 H 3.28125 c -0.015625,0.15625 -0.09375,0.5625 -0.1875,0.625 C 3.046875,-0.59375 2.515625,-0.59375 2.40625,-0.59375 H 1.125 c 0.734375,-0.640625 0.984375,-0.84375 1.390625,-1.171875 0.515625,-0.40625 1,-0.84375 1,-1.5 0,-0.84375 -0.734375,-1.359375 -1.625,-1.359375 -0.859375,0 -1.453125,0.609375 -1.453125,1.25 0,0.34375 0.296875,0.390625 0.375,0.390625 0.15625,0 0.359375,-0.125 0.359375,-0.375 0,-0.125 -0.046875,-0.375 -0.40625,-0.375 C 0.984375,-4.21875 1.453125,-4.375 1.78125,-4.375 c 0.703125,0 1.0625,0.546875 1.0625,1.109375 0,0.609375 -0.4375,1.078125 -0.65625,1.328125 L 0.515625,-0.265625 C 0.4375,-0.203125 0.4375,-0.1875 0.4375,0 h 2.875 z m 0,0"
           id="path1956" />
      </symbol>
      <symbol
         overflow="visible"
         id="symbol4528">
        <path
           style="stroke:none"
           d="M 2.46875,-5.21875 C 1.15625,-4.296875 0.796875,-2.8125 0.796875,-1.75 c 0,0.984375 0.296875,2.515625 1.671875,3.484375 0.0625,0 0.140625,0 0.140625,-0.078125 0,-0.046875 -0.015625,-0.0625 -0.0625,-0.109375 C 1.609375,0.703125 1.28125,-0.46875 1.28125,-1.734375 1.28125,-3.625 2,-4.546875 2.5625,-5.0625 2.59375,-5.09375 2.609375,-5.109375 2.609375,-5.140625 2.609375,-5.21875 2.53125,-5.21875 2.46875,-5.21875 Z m 0,0"
           id="path7205" />
      </symbol>
      <symbol
         overflow="visible"
         id="symbol1977">
        <path
           style="stroke:none"
           d="m 0.625,-5.21875 c -0.046875,0 -0.125,0 -0.125,0.078125 0,0.03125 0.015625,0.046875 0.0625,0.109375 0.59375,0.546875 1.265625,1.484375 1.265625,3.28125 0,1.453125 -0.453125,2.5625 -1.203125,3.234375 -0.125,0.125 -0.125,0.125 -0.125,0.171875 0,0.03125 0.015625,0.078125 0.078125,0.078125 0.09375,0 0.75,-0.453125 1.21875,-1.328125 0.296875,-0.578125 0.5,-1.328125 0.5,-2.140625 C 2.296875,-2.71875 2,-4.25 0.625,-5.21875 Z m 0,0"
           id="path4057" />
      </symbol>
      <symbol
         overflow="visible"
         id="symbol9556">
        <path
           style="stroke:none"
           d=""
           id="path3321" />
      </symbol>
      <symbol
         overflow="visible"
         id="symbol8899">
        <path
           style="stroke:none"
           d="m 5.3125,-4.421875 c 0.09375,-0.03125 0.15625,-0.09375 0.15625,-0.171875 0,-0.109375 -0.078125,-0.1875 -0.171875,-0.1875 -0.015625,0 -0.046875,0 -0.140625,0.046875 l -4.25,2.046875 C 0.796875,-2.640625 0.75,-2.578125 0.75,-2.5 c 0,0.078125 0.046875,0.125 0.15625,0.1875 l 4.25,2.03125 c 0.09375,0.046875 0.125,0.046875 0.140625,0.046875 0.109375,0 0.171875,-0.09375 0.171875,-0.15625 0,-0.125 -0.09375,-0.15625 -0.15625,-0.1875 L 1.3125,-2.5 Z m -0.125,5.71875 c 0.109375,0 0.28125,0 0.28125,-0.15625 C 5.46875,0.96875 5.296875,0.96875 5.1875,0.96875 H 1.03125 c -0.125,0 -0.28125,0 -0.28125,0.171875 0,0.15625 0.171875,0.15625 0.28125,0.15625 z m 0,0"
           id="path6844" />
      </symbol>
      <symbol
         overflow="visible"
         id="symbol404">
        <path
           style="stroke:none"
           d=""
           id="path8177" />
      </symbol>
      <symbol
         overflow="visible"
         id="symbol3046">
        <path
           style="stroke:none"
           d="m 1.453125,5.828125 c 0,0.15625 0,0.359375 0.203125,0.359375 C 1.875,6.1875 1.875,5.984375 1.875,5.828125 V 0.15625 c 0,-0.15625 0,-0.359375 -0.203125,-0.359375 -0.21875,0 -0.21875,0.1875 -0.21875,0.359375 z m 0,0"
           id="path2034" />
      </symbol>
    </g>
    <g
       id="g4029">
      <symbol
         overflow="visible"
         id="symbol5754">
        <path
           style="stroke:none"
           d=""
           id="path1197" />
      </symbol>
      <symbol
         overflow="visible"
         id="symbol7449">
        <path
           style="stroke:none"
           d="m 4.84375,-3.796875 c 0.046875,-0.140625 0.046875,-0.15625 0.046875,-0.234375 0,-0.171875 -0.140625,-0.265625 -0.296875,-0.265625 -0.09375,0 -0.25,0.0625 -0.34375,0.203125 -0.015625,0.0625 -0.109375,0.359375 -0.140625,0.546875 -0.078125,0.25 -0.140625,0.53125 -0.203125,0.796875 l -0.453125,1.796875 c -0.03125,0.140625 -0.46875,0.84375 -1.125,0.84375 -0.5,0 -0.609375,-0.4375 -0.609375,-0.8125 C 1.71875,-1.375 1.890625,-2 2.21875,-2.875 2.375,-3.28125 2.421875,-3.390625 2.421875,-3.59375 c 0,-0.4375 -0.3125,-0.8125 -0.8125,-0.8125 -0.953125,0 -1.3125,1.453125 -1.3125,1.53125 0,0.109375 0.09375,0.109375 0.109375,0.109375 0.109375,0 0.109375,-0.03125 0.15625,-0.1875 0.28125,-0.9375 0.671875,-1.234375 1.015625,-1.234375 0.078125,0 0.25,0 0.25,0.3125 0,0.25 -0.109375,0.515625 -0.171875,0.703125 -0.40625,1.0625 -0.578125,1.625 -0.578125,2.09375 0,0.890625 0.625,1.1875 1.21875,1.1875 0.390625,0 0.71875,-0.171875 1,-0.453125 -0.125,0.515625 -0.25,1.015625 -0.640625,1.546875 -0.265625,0.328125 -0.640625,0.625 -1.09375,0.625 -0.140625,0 -0.59375,-0.03125 -0.765625,-0.421875 0.15625,0 0.296875,0 0.421875,-0.125 C 1.328125,1.203125 1.421875,1.0625 1.421875,0.875 1.421875,0.5625 1.15625,0.53125 1.0625,0.53125 0.828125,0.53125 0.5,0.6875 0.5,1.171875 c 0,0.5 0.4375,0.875 1.0625,0.875 1.015625,0 2.046875,-0.90625 2.328125,-2.03125 z m 0,0"
           id="path2559" />
      </symbol>
      <symbol
         overflow="visible"
         id="symbol9861">
        <path
           style="stroke:none"
           d="m 4.671875,-3.703125 c 0,-0.546875 -0.265625,-0.703125 -0.4375,-0.703125 -0.25,0 -0.5,0.265625 -0.5,0.484375 0,0.125 0.046875,0.1875 0.15625,0.296875 0.21875,0.203125 0.34375,0.453125 0.34375,0.8125 0,0.421875 -0.609375,2.703125 -1.765625,2.703125 -0.515625,0 -0.75,-0.34375 -0.75,-0.875 0,-0.546875 0.28125,-1.28125 0.578125,-2.109375 0.078125,-0.171875 0.125,-0.3125 0.125,-0.5 0,-0.4375 -0.3125,-0.8125 -0.8125,-0.8125 -0.9375,0 -1.3125,1.453125 -1.3125,1.53125 0,0.109375 0.09375,0.109375 0.109375,0.109375 0.109375,0 0.109375,-0.03125 0.15625,-0.1875 0.296875,-1 0.71875,-1.234375 1.015625,-1.234375 0.078125,0 0.25,0 0.25,0.3125 0,0.25 -0.109375,0.53125 -0.171875,0.703125 -0.4375,1.15625 -0.5625,1.609375 -0.5625,2.046875 0,1.078125 0.875,1.234375 1.328125,1.234375 1.671875,0 2.25,-3.296875 2.25,-3.8125 z m 0,0"
           id="path346" />
      </symbol>
      <symbol
         overflow="visible"
         id="symbol2489">
        <path
           style="stroke:none"
           d=""
           id="path9381" />
      </symbol>
      <symbol
         overflow="visible"
         id="symbol5315">
        <path
           style="stroke:none"
           d="m 3.296875,2.390625 c 0,-0.03125 0,-0.046875 -0.171875,-0.21875 C 1.890625,0.921875 1.5625,-0.96875 1.5625,-2.5 c 0,-1.734375 0.375,-3.46875 1.609375,-4.703125 0.125,-0.125 0.125,-0.140625 0.125,-0.171875 0,-0.078125 -0.03125,-0.109375 -0.09375,-0.109375 -0.109375,0 -1,0.6875 -1.59375,1.953125 -0.5,1.09375 -0.625,2.203125 -0.625,3.03125 0,0.78125 0.109375,1.984375 0.65625,3.125 C 2.25,1.84375 3.09375,2.5 3.203125,2.5 c 0.0625,0 0.09375,-0.03125 0.09375,-0.109375 z m 0,0"
           id="path2815" />
      </symbol>
      <symbol
         overflow="visible"
         id="symbol6501">
        <path
           style="stroke:none"
           d="m 2.875,-2.5 c 0,-0.765625 -0.109375,-1.96875 -0.65625,-3.109375 -0.59375,-1.21875 -1.453125,-1.875 -1.546875,-1.875 -0.0625,0 -0.109375,0.046875 -0.109375,0.109375 0,0.03125 0,0.046875 0.1875,0.234375 0.984375,0.984375 1.546875,2.5625 1.546875,4.640625 0,1.71875 -0.359375,3.46875 -1.59375,4.71875 C 0.5625,2.34375 0.5625,2.359375 0.5625,2.390625 0.5625,2.453125 0.609375,2.5 0.671875,2.5 0.765625,2.5 1.671875,1.8125 2.25,0.546875 2.765625,-0.546875 2.875,-1.65625 2.875,-2.5 Z m 0,0"
           id="path8200" />
      </symbol>
    </g>
    <g
       id="g45">
      <symbol
         overflow="visible"
         id="symbol1270">
        <path
           style="stroke:none"
           d=""
           id="path5082" />
      </symbol>
      <symbol
         overflow="visible"
         id="symbol9340">
        <path
           style="stroke:none"
           d="M 2.625,-4.359375 C 1.390625,-4.0625 0.421875,-2.765625 0.421875,-1.5625 0.421875,-0.59375 1.0625,0.125 2,0.125 c 1.15625,0 1.984375,-1.578125 1.984375,-2.953125 0,-0.90625 -0.390625,-1.40625 -0.734375,-1.84375 C 2.890625,-5.125 2.296875,-5.875 2.296875,-6.3125 c 0,-0.21875 0.203125,-0.453125 0.546875,-0.453125 0.3125,0 0.5,0.125 0.71875,0.265625 0.203125,0.125 0.390625,0.25 0.546875,0.25 C 4.359375,-6.25 4.5,-6.484375 4.5,-6.65625 4.5,-6.875 4.34375,-6.890625 3.984375,-6.984375 3.46875,-7.09375 3.328125,-7.09375 3.171875,-7.09375 c -0.78125,0 -1.140625,0.4375 -1.140625,1.03125 0,0.546875 0.296875,1.09375 0.59375,1.703125 z m 0.125,0.21875 c 0.25,0.46875 0.546875,1 0.546875,1.71875 0,0.65625 -0.375,2.328125 -1.296875,2.328125 -0.546875,0 -0.96875,-0.421875 -0.96875,-1.1875 0,-0.625 0.375,-2.5 1.71875,-2.859375 z m 0,0"
           id="path9036" />
      </symbol>
      <symbol
         overflow="visible"
         id="symbol100">
        <path
           style="stroke:none"
           d=""
           id="path349" />
      </symbol>
      <symbol
         overflow="visible"
         id="symbol2691">
        <path
           style="stroke:none"
           d="M 3.0625,-4.359375 C 3.0625,-4.46875 2.96875,-4.625 2.78125,-4.625 c -0.203125,0 -0.390625,0.203125 -0.390625,0.390625 0,0.109375 0.078125,0.265625 0.28125,0.265625 0.1875,0 0.390625,-0.1875 0.390625,-0.390625 z M 1.578125,0.34375 C 1.46875,0.828125 1.09375,1.21875 0.6875,1.21875 c -0.09375,0 -0.171875,0 -0.25,-0.03125 0.171875,-0.09375 0.234375,-0.25 0.234375,-0.359375 0,-0.171875 -0.140625,-0.25 -0.28125,-0.25 C 0.1875,0.578125 0,0.765625 0,0.984375 c 0,0.265625 0.265625,0.4375 0.6875,0.4375 0.421875,0 1.234375,-0.25 1.453125,-1.09375 l 0.625,-2.5 c 0.015625,-0.078125 0.03125,-0.140625 0.03125,-0.25 0,-0.375 -0.328125,-0.65625 -0.734375,-0.65625 -0.78125,0 -1.21875,0.96875 -1.21875,1.078125 0,0.078125 0.09375,0.078125 0.109375,0.078125 0.078125,0 0.09375,-0.015625 0.140625,-0.125 C 1.265625,-2.453125 1.625,-2.875 2.03125,-2.875 c 0.171875,0 0.234375,0.109375 0.234375,0.34375 0,0.078125 0,0.171875 -0.015625,0.203125 z m 0,0"
           id="path557" />
      </symbol>
    </g>
    <rect
       x="101.28884"
       y="408.58298"
       width="180.45485"
       height="38.032887"
       id="rect37329-7" />
    <rect
       x="101.28884"
       y="408.58298"
       width="180.45485"
       height="38.032887"
       id="rect37329-7-6" />
    <rect
       x="101.28884"
       y="408.58298"
       width="180.45485"
       height="38.032887"
       id="rect37329-7-6-9" />
    <rect
       x="101.28884"
       y="408.58298"
       width="185.9053"
       height="82.38781"
       id="rect37329-7-6-9-0" />
    <filter
       style="color-interpolation-filters:sRGB"
       inkscape:label="Invert"
       id="filter83492"
       x="0"
       y="0"
       width="1"
       height="1">
      <feColorMatrix
         type="hueRotate"
         values="180"
         result="color1"
         id="feColorMatrix83488" />
      <feColorMatrix
         values="-1 0 0 0 1 0 -1 0 0 1 0 0 -1 0 1 -0.21 -0.72 -0.07 2 0 "
         result="color2"
         id="feColorMatrix83490" />
    </filter>
    <filter
       style="color-interpolation-filters:sRGB"
       inkscape:label="Invert"
       id="filter83498"
       x="0"
       y="0"
       width="1"
       height="1">
      <feColorMatrix
         type="hueRotate"
         values="180"
         result="color1"
         id="feColorMatrix83494" />
      <feColorMatrix
         values="-1 0 0 0 1 0 -1 0 0 1 0 0 -1 0 1 -0.21 -0.72 -0.07 2 0 "
         result="color2"
         id="feColorMatrix83496" />
    </filter>
    <filter
       style="color-interpolation-filters:sRGB"
       inkscape:label="Invert"
       id="filter83504"
       x="0"
       y="0"
       width="1"
       height="1">
      <feColorMatrix
         type="hueRotate"
         values="180"
         result="color1"
         id="feColorMatrix83500" />
      <feColorMatrix
         values="-1 0 0 0 1 0 -1 0 0 1 0 0 -1 0 1 -0.21 -0.72 -0.07 2 0 "
         result="color2"
         id="feColorMatrix83502" />
    </filter>
    <filter
       style="color-interpolation-filters:sRGB"
       inkscape:label="Invert"
       id="filter83510"
       x="0"
       y="0"
       width="1"
       height="1">
      <feColorMatrix
         type="hueRotate"
         values="180"
         result="color1"
         id="feColorMatrix83506" />
      <feColorMatrix
         values="-1 0 0 0 1 0 -1 0 0 1 0 0 -1 0 1 -0.21 -0.72 -0.07 2 0 "
         result="color2"
         id="feColorMatrix83508" />
    </filter>
    <filter
       style="color-interpolation-filters:sRGB"
       inkscape:label="Invert"
       id="filter83516"
       x="0"
       y="0"
       width="1"
       height="1">
      <feColorMatrix
         type="hueRotate"
         values="180"
         result="color1"
         id="feColorMatrix83512" />
      <feColorMatrix
         values="-1 0 0 0 1 0 -1 0 0 1 0 0 -1 0 1 -0.21 -0.72 -0.07 2 0 "
         result="color2"
         id="feColorMatrix83514" />
    </filter>
    <filter
       style="color-interpolation-filters:sRGB"
       inkscape:label="Invert"
       id="filter83522"
       x="0"
       y="0"
       width="1"
       height="1">
      <feColorMatrix
         type="hueRotate"
         values="180"
         result="color1"
         id="feColorMatrix83518" />
      <feColorMatrix
         values="-1 0 0 0 1 0 -1 0 0 1 0 0 -1 0 1 -0.21 -0.72 -0.07 2 0 "
         result="color2"
         id="feColorMatrix83520" />
    </filter>
    <filter
       style="color-interpolation-filters:sRGB"
       inkscape:label="Invert"
       id="filter83528"
       x="0"
       y="0"
       width="1"
       height="1">
      <feColorMatrix
         type="hueRotate"
         values="180"
         result="color1"
         id="feColorMatrix83524" />
      <feColorMatrix
         values="-1 0 0 0 1 0 -1 0 0 1 0 0 -1 0 1 -0.21 -0.72 -0.07 2 0 "
         result="color2"
         id="feColorMatrix83526" />
    </filter>
    <rect
       x="101.28884"
       y="408.58298"
       width="113.74558"
       height="15.952"
       id="rect37329-7-6-3" />
  </defs>
  <g
     inkscape:label="Layer 1"
     inkscape:groupmode="layer"
     id="layer1"
     transform="translate(-15.733324,-96.078746)">
    <rect
       style="fill:#16c47f;stroke:#ffffff;stroke-width:0.264999;stroke-linecap:round;stroke-linejoin:round;stroke-opacity:1;paint-order:markers fill stroke"
       id="rect34283-7-0-4-1"
       width="54.735001"
       height="27.995995"
       x="79.94091"
       y="132.8535"
       rx="4"
       ry="4"
       inkscape:export-filename="/home/joaquintz/Documents/blog/diagrama.png"
       inkscape:export-xdpi="299.96851"
       inkscape:export-ydpi="299.96851" />
    <g
       id="g63683"
       transform="matrix(1.0369934,0,0,1,-10.474238,-6.3357558)"
       style="stroke-width:0.982001"
       inkscape:export-filename="/home/joaquintz/Documents/blog/diagrama.png"
       inkscape:export-xdpi="299.96851"
       inkscape:export-ydpi="299.96851">
      <rect
         style="fill:#16c47f;stroke:#d0dde7;stroke-width:0.260229;stroke-linecap:round;stroke-linejoin:round;stroke-opacity:0.00590258;paint-order:markers fill stroke"
         id="rect34283"
         width="52.777706"
         height="13.046539"
         x="25.402763"
         y="102.54462"
         rx="3.857305"
         ry="4" />
      <text
         xml:space="preserve"
         transform="matrix(0.26458333,0,0,0.26458333,3.0337471,-0.99016386)"
         id="text37327"
         style="font-style:normal;font-variant:normal;font-weight:bold;font-stretch:normal;font-size:12px;line-height:1.25;font-family:'TeX Gyre Termes Math';-inkscape-font-specification:'TeX Gyre Termes Math Bold';letter-spacing:0px;word-spacing:0px;white-space:pre;shape-inside:url(#rect37329);fill:#000000;fill-opacity:1;stroke:none;stroke-width:0.982001"><tspan
           x="101.28906"
           y="419.46603"
           id="tspan8792"><tspan
             style="font-weight:normal;font-family:Iosevka;-inkscape-font-specification:Iosevka;fill:#ffffff"
             id="tspan8790">Recibir las seales</tspan></tspan></text>
    </g>
    <rect
       style="fill:#16c47f;stroke:#d0dde7;stroke-width:0.264999;stroke-linecap:round;stroke-linejoin:round;stroke-opacity:0.00590258;paint-order:markers fill stroke"
       id="rect34283-7"
       width="54.735004"
       height="13.046539"
       x="15.865824"
       y="115.15971"
       rx="4"
       ry="4"
       inkscape:export-filename="/home/joaquintz/Documents/blog/diagrama.png"
       inkscape:export-xdpi="299.96851"
       inkscape:export-ydpi="299.96851" />
    <text
       xml:space="preserve"
       transform="matrix(0.26458333,0,0,0.26458333,-6.3136325,11.436714)"
       id="text37327-2"
       style="font-style:normal;font-variant:normal;font-weight:bold;font-stretch:normal;font-size:12px;line-height:1.25;font-family:'TeX Gyre Termes Math';-inkscape-font-specification:'TeX Gyre Termes Math Bold';letter-spacing:0px;word-spacing:0px;white-space:pre;shape-inside:url(#rect37329-7);fill:#000000;fill-opacity:1;stroke:none"
       inkscape:export-filename="/home/joaquintz/Documents/blog/diagrama.png"
       inkscape:export-xdpi="299.96851"
       inkscape:export-ydpi="299.96851"><tspan
         x="101.28906"
         y="419.46603"
         id="tspan8796"><tspan
           style="font-weight:normal;font-family:Iosevka;-inkscape-font-specification:Iosevka;fill:#ffffff"
           id="tspan8794">Aplicar FFT a cada una:</tspan></tspan></text>
    <rect
       style="fill:#16c47f;stroke:#d0dde7;stroke-width:0.264999;stroke-linecap:round;stroke-linejoin:round;stroke-opacity:0.00590258;paint-order:markers fill stroke"
       id="rect34283-7-0"
       width="54.735001"
       height="27.995995"
       x="78.386963"
       y="98.707436"
       rx="4"
       ry="4"
       inkscape:export-filename="/home/joaquintz/Documents/blog/diagrama.png"
       inkscape:export-xdpi="299.96851"
       inkscape:export-ydpi="299.96851" />
    <text
       xml:space="preserve"
       transform="matrix(0.26458333,0,0,0.26458333,58.419246,-4.8273467)"
       id="text37327-2-6"
       style="font-style:normal;font-variant:normal;font-weight:bold;font-stretch:normal;font-size:12px;line-height:1.25;font-family:'TeX Gyre Termes Math';-inkscape-font-specification:'TeX Gyre Termes Math Bold';letter-spacing:0px;word-spacing:0px;white-space:pre;shape-inside:url(#rect37329-7-6);fill:#000000;fill-opacity:1;stroke:none"
       inkscape:export-filename="/home/joaquintz/Documents/blog/diagrama.png"
       inkscape:export-xdpi="299.96851"
       inkscape:export-ydpi="299.96851"><tspan
         x="101.28906"
         y="419.46603"
         id="tspan8800"><tspan
           style="font-weight:normal;font-family:Iosevka;-inkscape-font-specification:Iosevka;fill:#ffffff"
           id="tspan8798">Armar zonas de frecuencias</tspan></tspan></text>
    <text
       xml:space="preserve"
       transform="matrix(0.26458333,0,0,0.26458333,66.016168,-0.38712007)"
       id="text37327-2-6-6"
       style="font-style:normal;font-variant:normal;font-weight:bold;font-stretch:normal;font-size:12px;line-height:1.25;font-family:'TeX Gyre Termes Math';-inkscape-font-specification:'TeX Gyre Termes Math Bold';letter-spacing:0px;word-spacing:0px;white-space:pre;shape-inside:url(#rect37329-7-6-3);fill:#000000;fill-opacity:1;stroke:none"
       inkscape:export-filename="/home/joaquintz/Documents/blog/diagrama.png"
       inkscape:export-xdpi="299.96851"
       inkscape:export-ydpi="299.96851"><tspan
         x="101.28906"
         y="419.46603"
         id="tspan8804"><tspan
           style="font-weight:normal;font-family:Iosevka;-inkscape-font-specification:Iosevka;fill:#ffffff"
           id="tspan8802">tal que se cumpla:</tspan></tspan></text>
    <rect
       style="fill:#16c47f;stroke:#ffffff;stroke-width:0.264999;stroke-linecap:round;stroke-linejoin:round;stroke-opacity:1;paint-order:markers fill stroke"
       id="rect34283-7-0-4"
       width="54.735001"
       height="27.995995"
       x="79.393661"
       y="131.96147"
       rx="4"
       ry="4"
       inkscape:export-filename="/home/joaquintz/Documents/blog/diagrama.png"
       inkscape:export-xdpi="299.96851"
       inkscape:export-ydpi="299.96851" />
    <text
       xml:space="preserve"
       transform="matrix(0.26458333,0,0,0.26458333,62.683476,28.42668)"
       id="text37327-2-6-9"
       style="font-style:normal;font-variant:normal;font-weight:bold;font-stretch:normal;font-size:12px;line-height:1.25;font-family:'TeX Gyre Termes Math';-inkscape-font-specification:'TeX Gyre Termes Math Bold';letter-spacing:0px;word-spacing:0px;white-space:pre;shape-inside:url(#rect37329-7-6-9);fill:#000000;fill-opacity:1;stroke:none"
       inkscape:export-filename="/home/joaquintz/Documents/blog/diagrama.png"
       inkscape:export-xdpi="299.96851"
       inkscape:export-ydpi="299.96851"><tspan
         x="101.28906"
         y="419.46603"
         id="tspan8808"><tspan
           style="font-weight:normal;font-family:Iosevka;-inkscape-font-specification:Iosevka;fill:#ffffff"
           id="tspan8806">Por cada zona buscar </tspan></tspan><tspan
         x="101.28906"
         y="434.58603"
         id="tspan8812"><tspan
           style="font-weight:normal;font-family:Iosevka;-inkscape-font-specification:Iosevka;fill:#ffffff"
           id="tspan8810">direcciones factibles:</tspan></tspan></text>
    <rect
       style="fill:#16c47f;stroke:#d0dde7;stroke-width:0.264999;stroke-linecap:round;stroke-linejoin:round;stroke-opacity:0.00590258;paint-order:markers fill stroke"
       id="rect34283-7-0-4-9"
       width="54.735001"
       height="27.995995"
       x="135.7438"
       y="160.83932"
       rx="4"
       ry="4"
       inkscape:export-filename="/home/joaquintz/Documents/blog/diagrama.png"
       inkscape:export-xdpi="299.96851"
       inkscape:export-ydpi="299.96851" />
    <text
       xml:space="preserve"
       transform="matrix(0.26458333,0,0,0.26458333,112.88811,57.291317)"
       id="text37327-2-6-9-1"
       style="font-style:normal;font-variant:normal;font-weight:bold;font-stretch:normal;font-size:12px;line-height:1.25;font-family:'TeX Gyre Termes Math';-inkscape-font-specification:'TeX Gyre Termes Math Bold';letter-spacing:0px;word-spacing:0px;white-space:pre;shape-inside:url(#rect37329-7-6-9-0);fill:#000000;fill-opacity:1;stroke:none"
       inkscape:export-filename="/home/joaquintz/Documents/blog/diagrama.png"
       inkscape:export-xdpi="299.96851"
       inkscape:export-ydpi="299.96851"><tspan
         x="101.28906"
         y="419.46603"
         id="tspan8816"><tspan
           style="font-weight:normal;font-family:Iosevka;-inkscape-font-specification:Iosevka;fill:#ffffff"
           id="tspan8814">Armar un histograma 
</tspan></tspan><tspan
         x="101.28906"
         y="434.58603"
         id="tspan8820"><tspan
           style="font-weight:normal;font-family:Iosevka;-inkscape-font-specification:Iosevka;fill:#ffffff"
           id="tspan8818">de las estimaciones en cada </tspan></tspan><tspan
         x="101.28906"
         y="449.70602"
         id="tspan8824"><tspan
           style="font-weight:normal;font-family:Iosevka;-inkscape-font-specification:Iosevka;fill:#ffffff"
           id="tspan8822">ventana de tiempo y luego </tspan></tspan><tspan
         x="101.28906"
         y="464.82602"
         id="tspan8828"><tspan
           style="font-weight:normal;font-family:Iosevka;-inkscape-font-specification:Iosevka;fill:#ffffff"
           id="tspan8826">encontrar los posibles </tspan></tspan><tspan
         x="101.28906"
         y="479.94601"
         id="tspan8832"><tspan
           style="font-weight:normal;font-family:Iosevka;-inkscape-font-specification:Iosevka;fill:#ffffff"
           id="tspan8830">orgenes</tspan></tspan></text>
    <g
       inkscape:label=""
       transform="matrix(0.43545964,0,0,0.43545964,14.783804,67.973374)"
       id="g50356"
       style="stroke-width:2.29643;filter:url(#filter83528)"
       inkscape:export-filename="/home/joaquintz/Documents/blog/diagrama.png"
       inkscape:export-xdpi="299.96851"
       inkscape:export-ydpi="299.96851">
      <g
         id="g6791"
         style="stroke-width:2.29643">
        <g
           style="fill:#000000;fill-opacity:1;stroke-width:2.29643"
           id="g4849">
          <use
             xlink:href="#symbol6443"
             x="91.925003"
             y="81.962997"
             id="use1080"
             width="100%"
             height="100%"
             style="stroke-width:2.29643" />
        </g>
        <g
           style="fill:#000000;fill-opacity:1;stroke-width:2.29643"
           id="g9326">
          <use
             xlink:href="#symbol1681"
             x="97.619003"
             y="83.457001"
             id="use2060"
             width="100%"
             height="100%"
             style="stroke-width:2.29643" />
        </g>
        <g
           style="fill:#000000;fill-opacity:1;stroke-width:2.29643"
           id="g4892">
          <use
             xlink:href="#symbol5524"
             x="100.936"
             y="81.962997"
             id="use6759"
             width="100%"
             height="100%"
             style="stroke-width:2.29643" />
        </g>
        <g
           style="fill:#000000;fill-opacity:1;stroke-width:2.29643"
           id="g9207">
          <use
             xlink:href="#symbol2539"
             x="104.81"
             y="81.962997"
             id="use1612"
             width="100%"
             height="100%"
             style="stroke-width:2.29643" />
        </g>
        <g
           style="fill:#000000;fill-opacity:1;stroke-width:2.29643"
           id="g7580">
          <use
             xlink:href="#symbol5939"
             x="108.408"
             y="81.962997"
             id="use2179"
             width="100%"
             height="100%"
             style="stroke-width:2.29643" />
        </g>
      </g>
    </g>
    <g
       inkscape:label=""
       transform="matrix(0.42619886,0,0,0.42619886,17.960566,87.72403)"
       id="g50607"
       style="stroke-width:2.34632;filter:url(#filter83522)"
       inkscape:export-filename="/home/joaquintz/Documents/blog/diagrama.png"
       inkscape:export-xdpi="299.96851"
       inkscape:export-ydpi="299.96851">
      <g
         id="g5632"
         style="stroke-width:2.34632">
        <g
           style="fill:#000000;fill-opacity:1;stroke-width:2.34632"
           id="g9127">
          <use
             xlink:href="#symbol323"
             x="91.925003"
             y="81.962997"
             id="use1796"
             width="100%"
             height="100%"
             style="stroke-width:2.34632" />
        </g>
        <g
           style="fill:#000000;fill-opacity:1;stroke-width:2.34632"
           id="g831">
          <use
             xlink:href="#symbol8411"
             x="100.179"
             y="83.457001"
             id="use4727"
             width="100%"
             height="100%"
             style="stroke-width:2.34632" />
        </g>
        <g
           style="fill:#000000;fill-opacity:1;stroke-width:2.34632"
           id="g4523">
          <use
             xlink:href="#symbol4446"
             x="103.496"
             y="81.962997"
             id="use4426"
             width="100%"
             height="100%"
             style="stroke-width:2.34632" />
        </g>
        <g
           style="fill:#000000;fill-opacity:1;stroke-width:2.34632"
           id="g8596">
          <use
             xlink:href="#symbol4015"
             x="107.37"
             y="81.962997"
             id="use5503"
             width="100%"
             height="100%"
             style="stroke-width:2.34632" />
        </g>
        <g
           style="fill:#000000;fill-opacity:1;stroke-width:2.34632"
           id="g654">
          <use
             xlink:href="#symbol943"
             x="113.929"
             y="81.962997"
             id="use858"
             width="100%"
             height="100%"
             style="stroke-width:2.34632" />
        </g>
      </g>
    </g>
    <g
       inkscape:label=""
       transform="matrix(0.4130649,0,0,0.4130649,49.760503,76.659395)"
       id="g51031"
       style="stroke-width:2.42093;filter:url(#filter83516)"
       inkscape:export-filename="/home/joaquintz/Documents/blog/diagrama.png"
       inkscape:export-xdpi="299.96851"
       inkscape:export-ydpi="299.96851">
      <g
         id="g3004"
         style="stroke-width:2.42093">
        <g
           style="fill:#000000;fill-opacity:1;stroke-width:2.42093"
           id="g7936">
          <use
             xlink:href="#symbol8856"
             x="91.925003"
             y="81.962997"
             id="use7543"
             width="100%"
             height="100%"
             style="stroke-width:2.42093" />
        </g>
      </g>
    </g>
    <g
       inkscape:label=""
       transform="matrix(0.4535691,0,0,0.4535691,51.2922,80.839482)"
       id="g51502"
       style="stroke-width:2.20474;filter:url(#filter83510)"
       inkscape:export-filename="/home/joaquintz/Documents/blog/diagrama.png"
       inkscape:export-xdpi="299.96851"
       inkscape:export-ydpi="299.96851">
      <g
         id="g6414"
         style="stroke-width:2.20474">
        <g
           style="fill:#000000;fill-opacity:1;stroke-width:2.20474"
           id="g1497">
          <use
             xlink:href="#symbol4696"
             x="93.218002"
             y="79.5"
             id="use459"
             width="100%"
             height="100%"
             style="stroke-width:2.20474" />
        </g>
        <g
           style="fill:#000000;fill-opacity:1;stroke-width:2.20474"
           id="g5643">
          <use
             xlink:href="#symbol2396"
             x="91.925003"
             y="81.962997"
             id="use2112"
             width="100%"
             height="100%"
             style="stroke-width:2.20474" />
        </g>
        <g
           style="fill:#000000;fill-opacity:1;stroke-width:2.20474"
           id="g6858">
          <use
             xlink:href="#symbol1879"
             x="96.696999"
             y="79.084999"
             id="use9945"
             width="100%"
             height="100%"
             style="stroke-width:2.20474" />
        </g>
        <g
           style="fill:#000000;fill-opacity:1;stroke-width:2.20474"
           id="g7770">
          <use
             xlink:href="#symbol2833"
             x="99.491997"
             y="81.962997"
             id="use141"
             width="100%"
             height="100%"
             style="stroke-width:2.20474" />
          <use
             xlink:href="#symbol5620"
             x="103.36646"
             y="81.962997"
             id="use561"
             width="100%"
             height="100%"
             style="stroke-width:2.20474" />
          <use
             xlink:href="#symbol2054"
             x="110.56145"
             y="81.962997"
             id="use3923"
             width="100%"
             height="100%"
             style="stroke-width:2.20474" />
        </g>
        <g
           style="fill:#000000;fill-opacity:1;stroke-width:2.20474"
           id="g3910">
          <use
             xlink:href="#symbol254"
             x="117.203"
             y="81.962997"
             id="use6824"
             width="100%"
             height="100%"
             style="stroke-width:2.20474" />
        </g>
        <g
           style="fill:#000000;fill-opacity:1;stroke-width:2.20474"
           id="g3947">
          <use
             xlink:href="#symbol8754"
             x="127.719"
             y="81.962997"
             id="use560"
             width="100%"
             height="100%"
             style="stroke-width:2.20474" />
        </g>
        <g
           style="fill:#000000;fill-opacity:1;stroke-width:2.20474"
           id="g9545">
          <use
             xlink:href="#symbol6942"
             x="134.914"
             y="81.962997"
             id="use2673"
             width="100%"
             height="100%"
             style="stroke-width:2.20474" />
        </g>
        <g
           style="fill:#000000;fill-opacity:1;stroke-width:2.20474"
           id="g5767">
          <use
             xlink:href="#symbol7612"
             x="144.877"
             y="81.962997"
             id="use6906"
             width="100%"
             height="100%"
             style="stroke-width:2.20474" />
        </g>
      </g>
    </g>
    <g
       inkscape:label=""
       transform="matrix(0.43824684,0,0,0.43824684,41.79898,116.06505)"
       id="g56928"
       style="stroke-width:2.28182;filter:url(#filter83504)">
      <g
         id="g2213"
         style="stroke-width:2.28182"
         inkscape:export-filename="/home/joaquintz/Documents/blog/diagrama.png"
         inkscape:export-xdpi="299.96851"
         inkscape:export-ydpi="299.96851">
        <g
           style="fill:#000000;fill-opacity:1;stroke-width:2.28182"
           id="g7187">
          <use
             xlink:href="#symbol7765"
             x="92.741997"
             y="79.334"
             id="use6863"
             width="100%"
             height="100%"
             style="stroke-width:2.28182" />
        </g>
        <g
           style="fill:#000000;fill-opacity:1;stroke-width:2.28182"
           id="g7874">
          <use
             xlink:href="#symbol4934"
             x="91.925003"
             y="81.962997"
             id="use8723"
             width="100%"
             height="100%"
             style="stroke-width:2.28182" />
        </g>
        <g
           style="fill:#000000;fill-opacity:1;stroke-width:2.28182"
           id="g5543">
          <use
             xlink:href="#symbol1877"
             x="96.601997"
             y="83.457001"
             id="use2320"
             width="100%"
             height="100%"
             style="stroke-width:2.28182" />
        </g>
        <g
           style="fill:#000000;fill-opacity:1;stroke-width:2.28182"
           id="g3144">
          <use
             xlink:href="#symbol844"
             x="105.137"
             y="81.962997"
             id="use3444"
             width="100%"
             height="100%"
             style="stroke-width:2.28182" />
        </g>
        <g
           style="fill:#000000;fill-opacity:1;stroke-width:2.28182"
           id="g3323">
          <use
             xlink:href="#symbol8868"
             x="115.65551"
             y="81.962997"
             id="use6100"
             width="100%"
             height="100%"
             style="stroke-width:2.28182" />
          <use
             xlink:href="#symbol4360"
             x="120.63681"
             y="81.962997"
             id="use8599"
             width="100%"
             height="100%"
             style="stroke-width:2.28182" />
          <use
             xlink:href="#symbol1288"
             x="124.53916"
             y="81.962997"
             id="use7643"
             width="100%"
             height="100%"
             style="stroke-width:2.28182" />
          <use
             xlink:href="#symbol8931"
             x="129.52046"
             y="81.962997"
             id="use556"
             width="100%"
             height="100%"
             style="stroke-width:2.28182" />
          <use
             xlink:href="#symbol8868"
             x="137.8223"
             y="81.962997"
             id="use1325"
             width="100%"
             height="100%"
             style="stroke-width:2.28182" />
          <use
             xlink:href="#symbol9790"
             x="142.8036"
             y="81.962997"
             id="use9659"
             width="100%"
             height="100%"
             style="stroke-width:2.28182" />
        </g>
        <g
           style="fill:#000000;fill-opacity:1;stroke-width:2.28182"
           id="g8624">
          <use
             xlink:href="#symbol6282"
             x="116.808"
             y="90.403"
             id="use5140"
             width="100%"
             height="100%"
             style="stroke-width:2.28182" />
        </g>
        <g
           style="fill:#000000;fill-opacity:1;stroke-width:2.28182"
           id="g8681">
          <use
             xlink:href="#symbol8899"
             x="120.78"
             y="90.403"
             id="use5922"
             width="100%"
             height="100%"
             style="stroke-width:2.28182" />
        </g>
        <g
           style="fill:#000000;fill-opacity:1;stroke-width:2.28182"
           id="g2679">
          <use
             xlink:href="#symbol3009"
             x="127.006"
             y="90.403"
             id="use8304"
             width="100%"
             height="100%"
             style="stroke-width:2.28182" />
        </g>
        <g
           style="fill:#000000;fill-opacity:1;stroke-width:2.28182"
           id="g2634">
          <use
             xlink:href="#symbol8899"
             x="131.797"
             y="90.403"
             id="use6764"
             width="100%"
             height="100%"
             style="stroke-width:2.28182" />
        </g>
        <g
           style="fill:#000000;fill-opacity:1;stroke-width:2.28182"
           id="g4880">
          <use
             xlink:href="#symbol7783"
             x="138.02299"
             y="90.403"
             id="use8430"
             width="100%"
             height="100%"
             style="stroke-width:2.28182" />
        </g>
        <g
           style="fill:#000000;fill-opacity:1;stroke-width:2.28182"
           id="g4285">
          <use
             xlink:href="#symbol6800"
             x="141.995"
             y="90.403"
             id="use284"
             width="100%"
             height="100%"
             style="stroke-width:2.28182" />
        </g>
        <g
           style="fill:#000000;fill-opacity:1;stroke-width:2.28182"
           id="g694">
          <use
             xlink:href="#symbol3046"
             x="149.72"
             y="73.495003"
             id="use4193"
             width="100%"
             height="100%"
             style="stroke-width:2.28182" />
        </g>
        <g
           style="fill:#000000;fill-opacity:1;stroke-width:2.28182"
           id="g2010">
          <use
             xlink:href="#symbol3046"
             x="149.72"
             y="79.472"
             id="use8743"
             width="100%"
             height="100%"
             style="stroke-width:2.28182" />
        </g>
        <g
           style="fill:#000000;fill-opacity:1;stroke-width:2.28182"
           id="g180">
          <use
             xlink:href="#symbol3753"
             x="153.03999"
             y="81.962997"
             id="use644"
             width="100%"
             height="100%"
             style="stroke-width:2.28182" />
          <use
             xlink:href="#symbol220"
             x="160.23499"
             y="81.962997"
             id="use4626"
             width="100%"
             height="100%"
             style="stroke-width:2.28182" />
          <use
             xlink:href="#symbol3753"
             x="163.83249"
             y="81.962997"
             id="use1752"
             width="100%"
             height="100%"
             style="stroke-width:2.28182" />
          <use
             xlink:href="#symbol3268"
             x="171.02748"
             y="81.962997"
             id="use171"
             width="100%"
             height="100%"
             style="stroke-width:2.28182" />
        </g>
        <g
           style="fill:#000000;fill-opacity:1;stroke-width:2.28182"
           id="g146">
          <use
             xlink:href="#symbol4528"
             x="176.563"
             y="78.347"
             id="use4200"
             width="100%"
             height="100%"
             style="stroke-width:2.28182" />
        </g>
        <g
           style="fill:#000000;fill-opacity:1;stroke-width:2.28182"
           id="g7178">
          <use
             xlink:href="#symbol1877"
             x="179.677"
             y="78.347"
             id="use3639"
             width="100%"
             height="100%"
             style="stroke-width:2.28182" />
        </g>
        <g
           style="fill:#000000;fill-opacity:1;stroke-width:2.28182"
           id="g1117">
          <use
             xlink:href="#symbol1977"
             x="184.946"
             y="78.347"
             id="use6644"
             width="100%"
             height="100%"
             style="stroke-width:2.28182" />
        </g>
        <g
           style="fill:#000000;fill-opacity:1;stroke-width:2.28182"
           id="g9665">
          <use
             xlink:href="#symbol3817"
             x="188.55701"
             y="81.962997"
             id="use9874"
             width="100%"
             height="100%"
             style="stroke-width:2.28182" />
        </g>
        <g
           style="fill:#000000;fill-opacity:1;stroke-width:2.28182"
           id="g1886">
          <use
             xlink:href="#symbol3373"
             x="192.43201"
             y="81.962997"
             id="use4008"
             width="100%"
             height="100%"
             style="stroke-width:2.28182" />
        </g>
        <g
           style="fill:#000000;fill-opacity:1;stroke-width:2.28182"
           id="g5098">
          <use
             xlink:href="#symbol4058"
             x="198.368"
             y="81.962997"
             id="use4178"
             width="100%"
             height="100%"
             style="stroke-width:2.28182" />
        </g>
        <g
           style="fill:#000000;fill-opacity:1;stroke-width:2.28182"
           id="g7171">
          <use
             xlink:href="#symbol3046"
             x="202.242"
             y="73.495003"
             id="use5440"
             width="100%"
             height="100%"
             style="stroke-width:2.28182" />
        </g>
        <g
           style="fill:#000000;fill-opacity:1;stroke-width:2.28182"
           id="g1290">
          <use
             xlink:href="#symbol3046"
             x="202.242"
             y="79.472"
             id="use780"
             width="100%"
             height="100%"
             style="stroke-width:2.28182" />
        </g>
      </g>
    </g>
    <g
       inkscape:label=""
       transform="matrix(0.42366157,0,0,0.42366157,132.3281,133.69584)"
       id="g58135"
       style="stroke-width:2.36037;filter:url(#filter83498)"
       inkscape:export-filename="/home/joaquintz/Documents/blog/diagrama.png"
       inkscape:export-xdpi="299.96851"
       inkscape:export-ydpi="299.96851">
      <g
         id="g9437"
         style="stroke-width:2.36037">
        <g
           style="fill:#000000;fill-opacity:1;stroke-width:2.36037"
           id="g6801">
          <use
             xlink:href="#symbol7449"
             x="91.925003"
             y="81.962997"
             id="use7772"
             width="100%"
             height="100%"
             style="stroke-width:2.36037" />
        </g>
        <g
           style="fill:#000000;fill-opacity:1;stroke-width:2.36037"
           id="g6935">
          <use
             xlink:href="#symbol5315"
             x="97.167"
             y="81.962997"
             id="use3056"
             width="100%"
             height="100%"
             style="stroke-width:2.36037" />
        </g>
        <g
           style="fill:#000000;fill-opacity:1;stroke-width:2.36037"
           id="g6095">
          <use
             xlink:href="#symbol9861"
             x="101.042"
             y="81.962997"
             id="use8320"
             width="100%"
             height="100%"
             style="stroke-width:2.36037" />
        </g>
        <g
           style="fill:#000000;fill-opacity:1;stroke-width:2.36037"
           id="g8363">
          <use
             xlink:href="#symbol6501"
             x="106.228"
             y="81.962997"
             id="use6344"
             width="100%"
             height="100%"
             style="stroke-width:2.36037" />
        </g>
      </g>
    </g>
    <g
       inkscape:label=""
       transform="matrix(0.45357641,0,0,0.45357641,111.4703,147.35217)"
       id="g60468"
       style="stroke-width:2.2047;filter:url(#filter83492)"
       inkscape:export-filename="/home/joaquintz/Documents/blog/diagrama.png"
       inkscape:export-xdpi="299.96851"
       inkscape:export-ydpi="299.96851">
      <g
         id="g7581"
         style="stroke-width:2.2047">
        <g
           style="fill:#000000;fill-opacity:1;stroke-width:2.2047"
           id="g5298">
          <use
             xlink:href="#symbol9340"
             x="91.925003"
             y="81.962997"
             id="use1335"
             width="100%"
             height="100%"
             style="stroke-width:2.2047" />
        </g>
        <g
           style="fill:#000000;fill-opacity:1;stroke-width:2.2047"
           id="g500">
          <use
             xlink:href="#symbol2691"
             x="96.352997"
             y="83.457001"
             id="use8822"
             width="100%"
             height="100%"
             style="stroke-width:2.2047" />
        </g>
      </g>
    </g>
    <path
       style="fill:none;fill-rule:evenodd;stroke:#000000;stroke-width:0.265;stroke-linecap:butt;stroke-linejoin:miter;stroke-miterlimit:4;stroke-dasharray:none;stroke-opacity:1;marker-end:url(#Arrow1Lend)"
       d="m 43.233326,109.2554 v 5.90431"
       id="path90739"
       inkscape:connector-type="orthogonal"
       inkscape:connector-curvature="0"
       inkscape:connection-start="#g63683"
       inkscape:connection-end="#rect34283-7"
       inkscape:export-filename="/home/joaquintz/Documents/blog/diagrama.png"
       inkscape:export-xdpi="299.96851"
       inkscape:export-ydpi="299.96851" />
    <path
       style="fill:none;fill-rule:evenodd;stroke:#000000;stroke-width:0.265;stroke-linecap:butt;stroke-linejoin:miter;stroke-miterlimit:4;stroke-dasharray:none;stroke-opacity:1;marker-end:url(#Arrow1Lend)"
       d="m 70.600828,121.68298 h 7.786135"
       id="path90741"
       inkscape:connector-type="orthogonal"
       inkscape:connector-curvature="0"
       inkscape:connection-start="#rect34283-7"
       inkscape:connection-end="#rect34283-7-0"
       inkscape:export-filename="/home/joaquintz/Documents/blog/diagrama.png"
       inkscape:export-xdpi="299.96851"
       inkscape:export-ydpi="299.96851" />
    <path
       style="fill:none;fill-rule:evenodd;stroke:#000000;stroke-width:0.265;stroke-linecap:butt;stroke-linejoin:miter;stroke-miterlimit:4;stroke-dasharray:none;stroke-opacity:1;marker-end:url(#Arrow1Lend)"
       d="m 106.76116,126.70343 v 5.25804"
       id="path90743"
       inkscape:connector-type="orthogonal"
       inkscape:connector-curvature="0"
       inkscape:connection-start="#rect34283-7-0"
       inkscape:connection-end="#rect34283-7-0-4"
       inkscape:export-filename="/home/joaquintz/Documents/blog/diagrama.png"
       inkscape:export-xdpi="299.96851"
       inkscape:export-ydpi="299.96851" />
    <path
       style="fill:none;fill-rule:evenodd;stroke:#000000;stroke-width:0.265;stroke-linecap:butt;stroke-linejoin:miter;stroke-miterlimit:4;stroke-dasharray:none;stroke-opacity:1;marker-end:url(#Arrow1Lend)"
       d="m 134.12866,145.95947 h 28.98265 v 14.87985"
       id="path90745"
       inkscape:connector-type="orthogonal"
       inkscape:connector-curvature="0"
       inkscape:connection-start="#rect34283-7-0-4"
       inkscape:connection-end="#rect34283-7-0-4-9"
       inkscape:export-filename="/home/joaquintz/Documents/blog/diagrama.png"
       inkscape:export-xdpi="299.96851"
       inkscape:export-ydpi="299.96851" />
  </g>
</svg>
